<svg width="88" height="72" viewBox="0 0 88 72" fill="none" xmlns="http://www.w3.org/2000/svg">
<path d="M86.6452 2.41743C86.6452 3.1705 86.0431 3.77296 85.3205 3.77296H70.3578V22.1179H53.5286V37.4806H36.3681V55.0424H19.8399V70.134C19.8399 70.1641 19.8399 70.2244 19.8399 70.2545C19.7797 70.9473 19.2077 71.4896 18.4851 71.4896H1.35477C0.662333 71.4896 0.0903182 70.9473 0 70.2545C0 70.1943 0 70.1641 0 70.134C0 69.3809 0.602121 68.7785 1.35477 68.7785H17.1303V52.3313H33.6285V34.7696H50.7889V19.4068H67.6182V1.06189H85.2904C86.0431 1.06189 86.6452 1.66435 86.6452 2.41743Z" fill="#3D5485"/>
<path d="M10.8382 25.3696C11.1694 25.3696 11.5005 25.2491 11.7715 24.978L31.0996 5.63898V18.6521C31.0996 19.4353 31.7318 20.0679 32.5146 20.0679C33.2973 20.0679 33.9295 19.4353 33.9295 18.6521V2.38569C33.9295 1.60249 33.2973 0.96991 32.5146 0.96991H16.2573C15.4745 0.96991 14.8423 1.60249 14.8423 2.38569C14.8423 3.16889 15.4745 3.80148 16.2573 3.80148H29.2631L9.90491 23.1405C9.39311 23.6526 9.39311 24.4659 9.90491 24.978C10.1759 25.2491 10.507 25.3696 10.8382 25.3696Z" fill="#3D5485"/>
<path d="M88 8.53076V72H24.3257C24.3257 71.9699 24.3257 71.9096 24.3257 71.8795V57.8121H39.7099V41.4251H56.9908V25.6708H74.0007V8.53076H88Z" fill="#3F5586" fill-opacity="0.5"/>
</svg>
