<?xml version="1.0" encoding="utf-8"?>
<!-- Generator: Adobe Illustrator 23.0.1, SVG Export Plug-In . SVG Version: 6.00 Build 0)  -->
<svg version="1.1" id="Layer_1" xmlns="http://www.w3.org/2000/svg" xmlns:xlink="http://www.w3.org/1999/xlink" x="0px" y="0px"
	 viewBox="0 0 71.3 74.5" style="enable-background:new 0 0 71.3 74.5;" xml:space="preserve">
<style type="text/css">
	.st0{fill:#3F5586;fill-opacity:0.5;}
	.st1{fill:none;stroke:#3F5586;stroke-width:2;}
</style>
<g>
	<path class="st0" d="M34.9,73.6C9.8,73.6,0.3,63.2,0.3,45.5h15.8c0,10.7,5.4,14.1,19.2,14.1c10.2,0,13.5-2.4,13.5-6.1
		c0-5.1-8.5-7.4-18.7-10.9c-14.7-4.9-26.7-9-26.7-22.7C3.5,8,12.9,1.4,30.9,1.4c21.4,0,31,11,31,24.9H46.1c0-8.6-6.5-11-15.1-11
		c-7.1,0-11.6,1.6-11.6,5.2c0,3.2,1.7,4.4,12.9,8.2c12.9,4.4,32.6,9.9,32.6,24.6C64.8,65.3,56.4,73.6,34.9,73.6z"/>
</g>
<g>
	<path class="st1" d="M40.3,73.6c-25.1,0-34.6-10.3-34.6-28.1h15.8c0,10.7,5.4,14.1,19.2,14.1c10.2,0,13.5-2.4,13.5-6.1
		c0-5.1-8.5-7.4-18.7-10.9c-14.7-4.9-26.7-9-26.7-22.7C8.9,8,18.3,1.4,36.3,1.4c21.4,0,31,11,31,24.9H51.5c0-8.6-6.5-11-15.1-11
		c-7.1,0-11.6,1.6-11.6,5.2c0,3.2,1.7,4.4,12.9,8.2c12.9,4.4,32.6,9.9,32.6,24.6C70.2,65.3,61.8,73.6,40.3,73.6z"/>
</g>
</svg>
