<svg width="436" height="179" viewBox="0 0 436 179" fill="none" xmlns="http://www.w3.org/2000/svg">
<path d="M269.246 43.8402L211.125 5.44547C210.473 5.01016 209.69 4.83603 208.95 4.83603C208.211 4.7925 207.428 5.01016 206.775 5.44547L148.655 43.8402C146.958 44.972 146.48 47.2792 147.611 48.9334C148.742 50.6311 151.047 51.1099 152.701 49.9781L208.907 12.8458L265.113 49.9781C266.809 51.1099 269.115 50.6311 270.203 48.9334C271.377 47.2356 270.899 44.972 269.246 43.8402Z" fill="#C0EA6A"/>
<path d="M262.85 47.9757C263.72 48.5416 264.721 48.8463 265.722 48.8463C267.418 48.8463 269.071 48.0193 270.072 46.4957C271.638 44.1014 270.985 40.8366 268.593 39.2694L210.473 0.87472C209.559 0.26528 208.558 0.00409176 207.471 0.00409176C206.383 -0.0394397 205.339 0.26528 204.469 0.87472L180.281 16.8072V8.36213C181.543 7.57856 182.37 6.14202 182.37 4.57489V4.53136C182.37 2.00654 180.368 0.00409176 177.845 0.00409176H164.533C162.054 0.00409176 160.009 2.00654 160.009 4.53136V4.57489C160.009 6.31615 160.966 7.79622 162.402 8.53625V28.6042L146.349 39.2694C145.174 40.053 144.391 41.2284 144.13 42.5778C143.869 43.9273 144.13 45.3203 144.87 46.4957C145.653 47.671 146.828 48.4546 148.176 48.7158C149.525 48.9769 150.917 48.7158 152.091 47.9757L153.092 47.3227V90.2012C153.048 90.2883 152.961 90.3753 152.961 90.5059L145.131 111.445C144.957 111.923 145 112.446 145.305 112.838C145.609 113.229 146.044 113.491 146.566 113.491H153.135V175.262C153.135 176.089 153.832 176.785 154.658 176.785H259.936C260.762 176.785 261.458 176.089 261.458 175.262V113.403H267.984C268.462 113.403 268.941 113.142 269.245 112.75C269.55 112.359 269.593 111.836 269.419 111.357L261.589 90.4189C261.545 90.2883 261.502 90.2012 261.415 90.1141V47.018L262.85 47.9757ZM163.054 4.53136C163.054 3.70426 163.707 3.05129 164.533 3.05129H177.889C178.715 3.05129 179.368 3.70426 179.368 4.53136V4.57489C179.368 5.40199 178.715 6.05496 177.889 6.05496H164.533C163.707 6.05496 163.054 5.40199 163.054 4.57489V4.53136ZM165.447 9.10216H177.236V18.8532L165.447 26.6453V9.10216ZM150.395 45.4074C149.916 45.7121 149.351 45.8427 148.785 45.7121C148.22 45.5815 147.741 45.2768 147.393 44.7979C147.089 44.3191 146.958 43.7532 147.089 43.1873C147.219 42.6214 147.524 42.1425 148.002 41.7943L179.585 20.8992L206.122 3.39954C206.514 3.13835 206.949 3.05129 207.384 3.05129C207.427 3.05129 207.471 3.05129 207.514 3.05129C207.993 3.05129 208.428 3.13835 208.776 3.39954L266.896 41.7943C267.897 42.4472 268.158 43.7967 267.505 44.7979C266.853 45.7991 265.504 46.0603 264.504 45.4074L208.297 8.27506C208.036 8.10094 207.732 8.01387 207.471 8.01387C207.21 8.01387 206.905 8.10094 206.644 8.27506L153.745 43.1873L150.395 45.4074ZM194.507 173.651H173.625V133.863H194.507V173.651ZM258.37 173.651H197.552V132.383C197.552 131.513 196.856 130.816 195.986 130.816H172.146C171.32 130.816 170.58 131.513 170.58 132.383V173.651H156.137V113.403H258.37V173.651ZM265.809 110.356H148.742L155.441 92.4648H259.109L265.809 110.356ZM258.37 89.4612H156.137V45.2768L207.471 11.3658L258.37 45.0156V89.4612Z" fill="#2A3C64"/>
<path d="M195.856 34.3068C195.856 40.6189 200.989 45.7121 207.254 45.7121C213.561 45.7121 218.651 40.5754 218.651 34.3068C218.651 27.9948 213.518 22.9016 207.254 22.9016C200.989 22.9016 195.856 27.9948 195.856 34.3068ZM205.731 26.0794V32.7832H199.031C199.684 29.3878 202.338 26.6888 205.731 26.0794ZM199.031 35.8304H205.731V42.5343C202.338 41.8813 199.684 39.2259 199.031 35.8304ZM208.776 42.4908V35.8304H215.476C214.823 39.2259 212.169 41.8813 208.776 42.4908ZM215.476 32.7832H208.776V26.0794C212.169 26.6888 214.823 29.3878 215.476 32.7832Z" fill="#2A3C64"/>
<path d="M189.722 55.9419H171.972C171.146 55.9419 170.45 56.6384 170.45 57.4655V75.2263C170.45 76.0534 171.146 76.7499 171.972 76.7499H189.722C190.548 76.7499 191.244 76.0534 191.244 75.2263V57.4655C191.244 56.6384 190.548 55.9419 189.722 55.9419ZM188.199 58.9891V60.208H173.495V58.9891H188.199ZM173.495 73.7027V63.2552H188.199V73.7027H173.495Z" fill="#2A3C64"/>
<path d="M225.568 76.7499H243.318C244.144 76.7499 244.84 76.0534 244.84 75.2263V57.4655C244.84 56.6384 244.144 55.9419 243.318 55.9419H225.568C224.742 55.9419 224.046 56.6384 224.046 57.4655V75.2263C224.046 76.097 224.742 76.7499 225.568 76.7499ZM227.091 73.7027V63.2552H241.795V73.7027H227.091ZM241.795 58.9891V60.208H227.091V58.9891H241.795Z" fill="#2A3C64"/>
<path d="M212.561 148.707H243.492C244.318 148.707 245.014 148.011 245.014 147.184V123.982C245.014 123.155 244.318 122.458 243.492 122.458H212.561C211.734 122.458 211.038 123.155 211.038 123.982V147.184C211.038 148.011 211.734 148.707 212.561 148.707ZM214.084 145.66V130.163H241.969V145.66H214.084ZM242.013 125.505V127.072H214.127V125.505H242.013Z" fill="#2A3C64"/>
<path d="M285.82 74.4864C285.211 73.6593 284.515 73.1369 283.819 72.9192C283.602 72.8322 283.384 72.7451 283.167 72.7451H282.906C282.645 72.7451 282.427 72.7886 282.253 72.9192C281.557 73.1804 280.904 73.7028 280.252 74.4864C274.161 82.3656 267.81 123.155 270.855 135.126C273.161 144.267 278.773 147.706 281.339 148.838V176.524C281.339 177.351 282.036 178.048 282.862 178.048C283.689 178.048 284.385 177.351 284.385 176.524V149.012C286.777 148.054 292.781 144.746 295.217 135.169C298.262 123.155 291.954 82.3656 285.82 74.4864ZM292.259 134.342C290.519 141.307 286.647 144.354 284.385 145.573V128.639L290.649 119.585C291.128 118.888 290.954 117.931 290.258 117.452C289.562 116.973 288.604 117.147 288.126 117.844L284.341 123.285V103.435C284.341 102.608 283.645 101.911 282.819 101.911C281.992 101.911 281.296 102.608 281.296 103.435V113.316L277.903 109.921C277.294 109.312 276.337 109.312 275.771 109.921C275.162 110.53 275.162 111.488 275.771 112.054L281.296 117.582V128.074V145.399C278.99 144.05 275.423 140.959 273.77 134.386C272.378 128.944 273.117 115.537 275.554 101.041C278.207 85.2822 281.383 77.0983 282.993 75.9229C284.559 77.0983 287.778 85.2822 290.432 101.041C292.955 115.537 293.651 128.944 292.259 134.342Z" fill="#2A3C64"/>
<path d="M409.265 77.1956C409.941 77.6344 410.718 77.8706 411.494 77.8706C412.812 77.8706 414.095 77.2294 414.872 76.0482C416.087 74.192 415.581 71.6608 413.723 70.4458L368.604 40.6791C367.895 40.2066 367.118 40.0041 366.273 40.0041C365.429 39.9704 364.619 40.2066 363.943 40.6791L345.166 53.0313V46.484C346.145 45.8765 346.787 44.7628 346.787 43.5478V43.5141C346.787 41.5566 345.233 40.0041 343.275 40.0041H332.94C331.015 40.0041 329.428 41.5566 329.428 43.5141V43.5478C329.428 44.8978 330.171 46.0452 331.285 46.619V62.1773L318.824 70.4458C317.912 71.0533 317.304 71.9645 317.101 73.0107C316.899 74.057 317.101 75.1369 317.675 76.0482C318.283 76.9594 319.195 77.5669 320.242 77.7694C321.289 77.9719 322.37 77.7694 323.281 77.1956L324.058 76.6894V109.932C324.024 110 323.957 110.067 323.957 110.168L317.878 126.402C317.743 126.773 317.777 127.178 318.013 127.482C318.249 127.786 318.587 127.988 318.992 127.988H324.092V175.878C324.092 176.519 324.632 177.059 325.274 177.059H407.003C407.644 177.059 408.185 176.519 408.185 175.878V127.921H413.251C413.622 127.921 413.994 127.718 414.23 127.414C414.466 127.111 414.5 126.706 414.365 126.334L408.286 110.101C408.252 110 408.219 109.932 408.151 109.865V76.4532L409.265 77.1956ZM331.792 43.5141C331.792 42.8728 332.299 42.3666 332.94 42.3666H343.308C343.95 42.3666 344.457 42.8728 344.457 43.5141V43.5478C344.457 44.189 343.95 44.6953 343.308 44.6953H332.94C332.299 44.6953 331.792 44.189 331.792 43.5478V43.5141ZM333.65 47.0577H342.802V54.6175L333.65 60.6586V47.0577ZM321.964 75.2044C321.593 75.4407 321.154 75.5419 320.715 75.4407C320.276 75.3394 319.904 75.1032 319.634 74.732C319.398 74.3607 319.296 73.922 319.398 73.4832C319.499 73.0445 319.735 72.6733 320.107 72.4033L344.626 56.2037L365.227 42.6366C365.53 42.4341 365.868 42.3666 366.206 42.3666C366.24 42.3666 366.273 42.3666 366.307 42.3666C366.679 42.3666 367.016 42.4341 367.287 42.6366L412.406 72.4033C413.183 72.9095 413.386 73.9557 412.879 74.732C412.373 75.5082 411.326 75.7107 410.549 75.2044L366.915 46.4165C366.713 46.2815 366.476 46.214 366.273 46.214C366.071 46.214 365.834 46.2815 365.632 46.4165L324.565 73.4832L321.964 75.2044ZM356.209 174.629H339.999V143.783H356.209V174.629ZM405.787 174.629H358.573V142.635C358.573 141.96 358.033 141.42 357.358 141.42H338.85C338.209 141.42 337.635 141.96 337.635 142.635V174.629H326.422V127.921H405.787V174.629ZM411.562 125.558H320.681L325.882 111.687H406.361L411.562 125.558ZM405.787 109.359H326.422V75.1032L366.273 48.8127L405.787 74.9007V109.359Z" fill="#DEDEDE"/>
<path d="M357.256 66.5984C357.256 71.492 361.242 75.4406 366.105 75.4406C371.002 75.4406 374.953 71.4582 374.953 66.5984C374.953 61.7047 370.968 57.7561 366.105 57.7561C361.242 57.7561 357.256 61.7047 357.256 66.5984ZM364.923 60.2198V65.4171H359.722C360.228 62.7847 362.289 60.6923 364.923 60.2198ZM359.722 67.7796H364.923V72.9769C362.289 72.4707 360.228 70.412 359.722 67.7796ZM367.287 72.9432V67.7796H372.488C371.981 70.412 369.921 72.4707 367.287 72.9432ZM372.488 65.4171H367.287V60.2198C369.921 60.6923 371.981 62.7847 372.488 65.4171Z" fill="#DEDEDE"/>
<path d="M352.495 83.3716H338.715C338.074 83.3716 337.533 83.9116 337.533 84.5528V98.3224C337.533 98.9637 338.074 99.5036 338.715 99.5036H352.495C353.136 99.5036 353.677 98.9637 353.677 98.3224V84.5528C353.677 83.9116 353.136 83.3716 352.495 83.3716ZM351.312 85.734V86.679H339.898V85.734H351.312ZM339.898 97.1412V89.0414H351.312V97.1412H339.898Z" fill="#DEDEDE"/>
<path d="M380.323 99.5036H394.102C394.744 99.5036 395.284 98.9637 395.284 98.3224V84.5528C395.284 83.9116 394.744 83.3716 394.102 83.3716H380.323C379.681 83.3716 379.141 83.9116 379.141 84.5528V98.3224C379.141 98.9974 379.681 99.5036 380.323 99.5036ZM381.505 97.1412V89.0414H392.92V97.1412H381.505ZM392.92 85.734V86.679H381.505V85.734H392.92Z" fill="#DEDEDE"/>
<path d="M370.225 155.291H394.237C394.879 155.291 395.419 154.751 395.419 154.11V136.121C395.419 135.48 394.879 134.94 394.237 134.94H370.225C369.583 134.94 369.043 135.48 369.043 136.121V154.11C369.043 154.751 369.583 155.291 370.225 155.291ZM371.407 152.928V140.914H393.055V152.928H371.407ZM393.089 137.303V138.518H371.441V137.303H393.089Z" fill="#DEDEDE"/>
<path d="M427.097 97.7489C426.625 97.1077 426.084 96.7027 425.544 96.5339C425.375 96.4664 425.206 96.3989 425.037 96.3989H424.835C424.632 96.3989 424.463 96.4327 424.328 96.5339C423.788 96.7364 423.281 97.1414 422.775 97.7489C418.046 103.857 413.116 135.48 415.48 144.761C417.27 151.849 421.626 154.515 423.619 155.392V176.857C423.619 177.498 424.159 178.038 424.801 178.038C425.443 178.038 425.983 177.498 425.983 176.857V155.527C427.84 154.785 432.501 152.22 434.392 144.795C436.756 135.48 431.859 103.857 427.097 97.7489ZM432.096 144.154C430.745 149.554 427.739 151.916 425.983 152.861V139.733L430.846 132.713C431.218 132.173 431.082 131.43 430.542 131.059C430.002 130.688 429.259 130.823 428.887 131.363L425.949 135.582V120.192C425.949 119.551 425.409 119.011 424.767 119.011C424.125 119.011 423.585 119.551 423.585 120.192V127.853L420.951 125.221C420.478 124.748 419.735 124.748 419.296 125.221C418.823 125.693 418.823 126.436 419.296 126.874L423.585 131.16V139.294V152.726C421.795 151.68 419.026 149.284 417.742 144.188C416.662 139.969 417.236 129.574 419.127 118.336C421.187 106.119 423.653 99.7738 424.902 98.8626C426.118 99.7738 428.617 106.119 430.677 118.336C432.636 129.574 433.176 139.969 432.096 144.154Z" fill="#DEDEDE"/>
<path d="M119.241 77.1956C119.916 77.6344 120.693 77.8706 121.47 77.8706C122.787 77.8706 124.07 77.2294 124.847 76.0482C126.063 74.192 125.556 71.6608 123.699 70.4458L78.5791 40.6791C77.8699 40.2066 77.0931 40.0041 76.2488 40.0041C75.4045 39.9704 74.594 40.2066 73.9185 40.6791L55.1412 53.0313V46.484C56.1206 45.8765 56.7623 44.7628 56.7623 43.5478V43.5141C56.7623 41.5566 55.2088 40.0041 53.25 40.0041H42.9157C40.9907 40.0041 39.4034 41.5566 39.4034 43.5141V43.5478C39.4034 44.8978 40.1464 46.0452 41.2608 46.619V62.1773L28.7989 70.4458C27.8871 71.0533 27.2792 71.9645 27.0765 73.0107C26.8739 74.057 27.0765 75.1369 27.6507 76.0482C28.2586 76.9594 29.1704 77.5669 30.2173 77.7694C31.2643 77.9719 32.345 77.7694 33.2568 77.1956L34.0336 76.6894V109.932C33.9998 110 33.9323 110.067 33.9323 110.168L27.8533 126.402C27.7182 126.773 27.752 127.178 27.9884 127.482C28.2248 127.786 28.5625 127.988 28.9678 127.988H34.0674V175.878C34.0674 176.519 34.6077 177.059 35.2494 177.059H116.978C117.62 177.059 118.16 176.519 118.16 175.878V127.921H123.226C123.597 127.921 123.969 127.718 124.205 127.414C124.442 127.111 124.475 126.706 124.34 126.334L118.261 110.101C118.228 110 118.194 109.932 118.126 109.865V76.4532L119.241 77.1956ZM41.7674 43.5141C41.7674 42.8728 42.274 42.3666 42.9157 42.3666H53.2837C53.9254 42.3666 54.432 42.8728 54.432 43.5141V43.5478C54.432 44.189 53.9254 44.6953 53.2837 44.6953H42.9157C42.274 44.6953 41.7674 44.189 41.7674 43.5478V43.5141ZM43.6249 47.0577H52.7772V54.6175L43.6249 60.6586V47.0577ZM31.9397 75.2044C31.5682 75.4407 31.1292 75.5419 30.6901 75.4407C30.2511 75.3394 29.8796 75.1032 29.6094 74.732C29.373 74.3607 29.2717 73.922 29.373 73.4832C29.4743 73.0445 29.7108 72.6733 30.0822 72.4033L54.6009 56.2037L75.2019 42.6366C75.5058 42.4341 75.8436 42.3666 76.1813 42.3666C76.2151 42.3666 76.2488 42.3666 76.2826 42.3666C76.6541 42.3666 76.9918 42.4341 77.262 42.6366L122.382 72.4033C123.158 72.9095 123.361 73.9557 122.854 74.732C122.348 75.5082 121.301 75.7107 120.524 75.2044L76.8905 46.4165C76.6879 46.2815 76.4515 46.214 76.2488 46.214C76.0462 46.214 75.8098 46.2815 75.6072 46.4165L34.5402 73.4832L31.9397 75.2044ZM66.1847 174.629H49.9741V143.783H66.1847V174.629ZM115.762 174.629H68.5488V142.635C68.5488 141.96 68.0084 141.42 67.333 141.42H48.8258C48.1841 141.42 47.61 141.96 47.61 142.635V174.629H36.3976V127.921H115.762V174.629ZM121.537 125.558H30.6564L35.8573 111.687H116.336L121.537 125.558ZM115.762 109.359H36.3976V75.1032L76.2488 48.8127L115.762 74.9007V109.359Z" fill="#DEDEDE"/>
<path d="M67.2319 66.5984C67.2319 71.492 71.217 75.4406 76.0802 75.4406C80.9772 75.4406 84.9286 71.4582 84.9286 66.5984C84.9286 61.7047 80.9434 57.7561 76.0802 57.7561C71.217 57.7561 67.2319 61.7047 67.2319 66.5984ZM74.8982 60.2198V65.4171H69.6973C70.2039 62.7847 72.264 60.6923 74.8982 60.2198ZM69.6973 67.7796H74.8982V72.9769C72.264 72.4707 70.2039 70.412 69.6973 67.7796ZM77.2623 72.9432V67.7796H82.4632C81.9566 70.412 79.8965 72.4707 77.2623 72.9432ZM82.4632 65.4171H77.2623V60.2198C79.8965 60.6923 81.9566 62.7847 82.4632 65.4171Z" fill="#DEDEDE"/>
<path d="M62.4699 83.3716H48.6908C48.0491 83.3716 47.5088 83.9116 47.5088 84.5528V98.3224C47.5088 98.9637 48.0491 99.5036 48.6908 99.5036H62.4699C63.1115 99.5036 63.6519 98.9637 63.6519 98.3224V84.5528C63.6519 83.9116 63.1115 83.3716 62.4699 83.3716ZM61.2878 85.734V86.679H49.8728V85.734H61.2878ZM49.8728 97.1412V89.0414H61.2878V97.1412H49.8728Z" fill="#DEDEDE"/>
<path d="M90.2982 99.5036H104.077C104.719 99.5036 105.259 98.9637 105.259 98.3224V84.5528C105.259 83.9116 104.719 83.3716 104.077 83.3716H90.2982C89.6566 83.3716 89.1162 83.9116 89.1162 84.5528V98.3224C89.1162 98.9974 89.6566 99.5036 90.2982 99.5036ZM91.4803 97.1412V89.0414H102.895V97.1412H91.4803ZM102.895 85.734V86.679H91.4803V85.734H102.895Z" fill="#DEDEDE"/>
<path d="M80.2003 155.291H104.212C104.854 155.291 105.394 154.751 105.394 154.11V136.121C105.394 135.48 104.854 134.94 104.212 134.94H80.2003C79.5587 134.94 79.0183 135.48 79.0183 136.121V154.11C79.0183 154.751 79.5587 155.291 80.2003 155.291ZM81.3824 152.928V140.914H103.03V152.928H81.3824ZM103.064 137.303V138.518H81.4161V137.303H103.064Z" fill="#DEDEDE"/>
<path d="M12.2289 97.7486C11.7561 97.1074 11.2158 96.7024 10.6754 96.5337C10.5066 96.4662 10.3377 96.3987 10.1688 96.3987H9.9662C9.76357 96.3987 9.59471 96.4324 9.45962 96.5337C8.91926 96.7362 8.41269 97.1412 7.90611 97.7486C3.178 103.857 -1.75275 135.48 0.611306 144.761C2.40123 151.848 6.75785 154.515 8.75041 155.392V176.856C8.75041 177.498 9.29077 178.038 9.93244 178.038C10.5741 178.038 11.1145 177.498 11.1145 176.856V155.527C12.9719 154.785 17.6325 152.22 19.5237 144.795C21.8878 135.48 16.9908 103.857 12.2289 97.7486ZM17.2272 144.154C15.8763 149.553 12.8706 151.916 11.1145 152.861V139.733L15.9777 132.713C16.3492 132.173 16.2141 131.43 15.6737 131.059C15.1334 130.688 14.3904 130.823 14.0189 131.363L11.0807 135.581V120.192C11.0807 119.551 10.5403 119.011 9.89866 119.011C9.25699 119.011 8.71664 119.551 8.71664 120.192V127.853L6.0824 125.22C5.60959 124.748 4.8666 124.748 4.42756 125.22C3.95475 125.693 3.95475 126.435 4.42756 126.874L8.71664 131.16V139.294V152.726C6.92671 151.68 4.15738 149.284 2.87404 144.187C1.79333 139.969 2.36746 129.574 4.2587 118.336C6.31881 106.118 8.78418 99.7736 10.0338 98.8624C11.2496 99.7736 13.7487 106.118 15.8088 118.336C17.7676 129.574 18.3079 139.969 17.2272 144.154Z" fill="#DEDEDE"/>
</svg>
