<svg width="80" height="48" viewBox="0 0 80 48" fill="none" xmlns="http://www.w3.org/2000/svg">
<path d="M51.0037 34.4382L51.1524 35.3762C52.119 42.3024 58.29 47.5692 65.5019 47.5692C73.4573 47.5692 80 41.2923 80 33.5003C80 25.7804 73.5316 19.4314 65.5019 19.4314C64.3123 19.4314 63.1227 19.5757 62.0074 19.8643L61.0409 20.0807L58.3643 13.5152L63.9405 5.14603H70.632C71.1524 5.14603 71.5985 4.71314 71.5985 4.2081C71.5985 3.70306 71.2268 3.34232 70.632 3.34232H62.8996L56.7286 12.5052H29.4424L37.1004 0.961426H27.2119C26.6915 0.961426 26.2454 1.39432 26.2454 1.89935C26.2454 2.40439 26.6915 2.83728 27.2119 2.83728H33.6803L21.487 21.1629L20.5948 20.7301C18.6617 19.8643 16.5799 19.4314 14.4981 19.4314C6.4684 19.5035 0 25.7804 0 33.5003C0 41.2202 6.4684 47.5692 14.4981 47.5692C22.4535 47.5692 28.9963 41.2923 28.9963 33.5003C28.9963 29.3878 27.1375 25.4918 23.8662 22.7502L23.1227 22.173L27.881 14.9582L35.6134 33.861C35.7621 34.2218 36.1338 34.4382 36.5056 34.4382H51.0037ZM27.0632 33.5724C27.0632 40.2822 21.4126 45.7655 14.4981 45.7655C11.1524 45.7655 7.95539 44.4668 5.57621 42.1581C3.19703 39.8493 1.85874 36.8191 1.85874 33.5003C1.85874 26.7905 7.50929 21.3072 14.4238 21.3072C16.0595 21.3072 17.6952 21.5958 19.1822 22.2452L20.4461 22.7502L13.6803 33.0674C13.5316 33.2839 13.5316 33.5003 13.5316 33.7889C13.6059 34.0053 13.7546 34.2218 13.9777 34.3661C14.4238 34.6547 15.0186 34.5104 15.316 34.0775L22.0818 23.7603L23.0483 24.6261C25.5762 26.9348 27.0632 30.1815 27.0632 33.5724ZM63.0483 21.5958C63.8662 21.4515 64.684 21.3794 65.5019 21.3794C72.4164 21.3794 78.0669 26.8627 78.0669 33.5724C78.0669 40.2822 72.4164 45.7655 65.5019 45.7655C59.4052 45.7655 54.2007 41.5809 53.1599 35.7369L52.9368 34.4382H65.5762C65.8736 34.4382 66.171 34.2939 66.3941 34.0053C66.5428 33.7167 66.6171 33.4282 66.4684 33.1396L61.71 21.8123L63.0483 21.5958ZM64.0892 32.6345H52.8625L53.0855 31.3359C53.6803 28.017 55.7621 25.059 58.7361 23.1831L59.8513 22.4616L64.0892 32.6345ZM29.6654 14.381H56.6543L59.2565 20.8022L58.4387 21.2351C54.4981 23.3995 51.7472 27.2955 51.1524 31.6244L51.0037 32.5624H37.1004L29.6654 14.381Z" fill="#3F5586"/>
</svg>
