<svg width="43" height="49" viewBox="0 0 43 49" fill="none" xmlns="http://www.w3.org/2000/svg">
<g clip-path="url(#clip0)">
<path d="M42.5324 31.5722C43.4672 26.8832 42.9998 22.585 41.0523 19.0682C39.1049 15.5515 36.4563 13.3633 33.2625 12.5036C29.5233 11.5658 25.7842 12.6599 23.2915 13.8322L22.7462 14.0666V13.4414C22.902 11.0188 22.6683 8.90873 22.2009 7.11128L21.8114 5.54828L21.7335 5.62643L21.4219 4.92308C20.9545 3.98528 20.4092 3.12563 19.786 2.42228C18.3059 0.781133 16.6701 0.155934 15.969 -0.000366211L15.6574 2.10968C16.9817 2.57858 21.2661 4.61048 20.7208 13.5196V14.0666L20.1755 13.8322C17.6828 12.6599 13.7878 11.4877 9.9708 12.4255C6.69906 13.207 4.05051 15.4733 2.18095 18.9901C0.233482 22.5068 -0.233909 26.8051 0.700874 31.4941C1.24616 35.7141 3.11573 39.6998 5.68638 43.0602C9.19182 47.5148 13.4762 49.7811 16.9817 48.8433C17.3712 48.7652 19.3965 48.3744 21.344 47.4366L21.4998 47.3585L21.6556 47.4366C23.5251 48.3744 25.5505 48.7652 25.94 48.8433C26.4853 48.9996 27.0306 49.0778 27.5759 49.0778C30.6918 49.0778 34.2751 46.8896 37.2353 43.0602C39.8838 39.6998 41.6755 35.7142 42.5324 31.5722ZM26.4853 46.7333V46.3425L26.4074 46.7333C25.7063 46.6551 23.603 46.1081 22.0451 45.1703L21.4998 44.8577L20.9545 45.1703C19.1628 46.2644 16.9038 46.6551 16.5922 46.7333L16.4364 46.3425V46.7333C16.0469 46.8114 15.7353 46.8896 15.3458 46.8896C12.9309 46.8896 9.9708 45.014 7.40015 41.7317C2.88203 35.9486 0.233482 26.7269 3.81682 20.1623C5.45269 17.1926 7.63384 15.317 10.2824 14.6918C15.4237 13.3633 20.8766 16.88 20.9545 16.9582L21.5777 17.3489L22.2009 16.9582C22.2788 16.9582 27.5759 13.3633 32.7951 14.6918C35.4436 15.317 37.6248 17.1926 39.2607 20.1623C42.844 26.7269 40.1954 35.9486 35.6773 41.7317C32.6393 45.4829 29.1338 47.4366 26.4853 46.7333Z" fill="#3F5586"/>
<path d="M22.201 4.7671L21.8115 5.47045L22.8242 6.79899C23.759 8.04939 25.7843 10.1594 28.8224 10.5502C31.9383 11.0191 35.288 9.45609 38.7155 6.09564L39.4945 5.31415L38.7155 4.53265C35.288 1.1722 31.9383 -0.390798 28.8224 0.0781015C24.538 0.703301 22.2789 4.6108 22.201 4.7671ZM36.067 5.00155L36.3786 5.31415L36.067 5.62675C33.8858 7.58049 31.7825 8.51829 29.8351 8.51829C29.6014 8.51829 29.2898 8.51829 29.0561 8.44014C26.797 8.12754 25.2391 6.48639 24.538 5.5486L24.3822 5.31415L24.538 5.0797C25.2391 4.1419 26.8749 2.50075 29.0561 2.18815C31.2372 1.87555 33.5742 2.81335 36.067 5.00155Z" fill="#3F5586"/>
</g>
<defs>
<clipPath id="clip0">
<rect width="43" height="49" fill="white"/>
</clipPath>
</defs>
</svg>
