<svg width="36" height="48" viewBox="0 0 36 48" fill="none" xmlns="http://www.w3.org/2000/svg">
<path d="M18 0.961426C8.09302 0.961426 0 8.685 0 18.1397C0 27.0618 6.97674 34.3859 16.2558 35.2514L17.2326 35.318V46.0378H13.6047V47.5692H22.5349V46.0378H18.907V35.318L19.8837 35.2514C29.1628 34.3859 36.1395 27.0618 36.1395 18.1397C36 8.685 27.907 0.961426 18 0.961426ZM19.9535 33.72L18.7674 33.8532V24.6648L25.186 18.4061L24.0698 17.3407L18.8372 22.4676V16.4752H17.2326V27.3947L11.9302 22.2678L10.814 23.3332L17.2326 29.5919V33.8532L16.0465 33.72C7.81395 32.7879 1.60465 26.063 1.60465 18.1397C1.60465 9.48399 9 2.49282 18.0698 2.49282C27.1395 2.49282 34.4651 9.55058 34.4651 18.1397C34.4651 26.063 28.186 32.7879 19.9535 33.72Z" fill="#3F5586"/>
</svg>
