<svg width="37" height="58" viewBox="0 0 37 58" fill="none" xmlns="http://www.w3.org/2000/svg">
<path d="M36.29 58C36.6844 58 37 57.68 37 57.28V52.96C37 52.56 36.6844 52.24 36.29 52.24H32.4243V11.92C32.4243 11.52 32.1087 11.2 31.7143 11.2H28.4009V7.52C28.4009 7.12 28.0853 6.8 27.6908 6.8H19.2495V0H17.8294V6.8H9.30917C8.91471 6.8 8.59915 7.12 8.59915 7.52V11.2H5.36461C4.97015 11.2 4.65458 11.52 4.65458 11.92V52.24H0.710021C0.315565 52.24 0 52.56 0 52.96V57.28C0 57.68 0.315565 58 0.710021 58H36.29ZM10.0192 8.24H26.9808V11.2H10.0192V8.24ZM6.07463 12.64H31.0043V52.16H24.4563V44.8C24.4563 41.44 21.774 38.8 18.5394 38.8C15.226 38.8 12.6226 41.52 12.6226 44.8V52.24H6.07463V12.64ZM23.0362 44.8V52.24H14.0426V44.8C14.0426 42.32 16.0938 40.24 18.5394 40.24C20.9851 40.24 23.0362 42.32 23.0362 44.8ZM1.42004 53.68H35.58V56.56H1.42004V53.68Z" fill="#3F5586"/>
<path d="M12.6227 18.5601H11.2026V23.4401H12.6227V18.5601Z" fill="#3F5586"/>
<path d="M19.2496 18.5601H17.8296V23.4401H19.2496V18.5601Z" fill="#3F5586"/>
<path d="M25.7975 18.5601H24.3774V23.4401H25.7975V18.5601Z" fill="#3F5586"/>
<path d="M12.6227 29.04H11.2026V33.92H12.6227V29.04Z" fill="#3F5586"/>
<path d="M19.2496 29.04H17.8296V33.92H19.2496V29.04Z" fill="#3F5586"/>
<path d="M25.7975 29.04H24.3774V33.92H25.7975V29.04Z" fill="#3F5586"/>
</svg>
