<svg width="139" height="36" viewBox="0 0 139 36" fill="none" xmlns="http://www.w3.org/2000/svg">
<g clip-path="url(#clip0)">
<path d="M138.7 -1H1.7002V34H138.7V-1Z" fill="#3F5586"/>
<path d="M26.6998 22.1H26.4998C26.3998 22.4 26.1998 22.7 25.9998 23C25.7998 23.3 25.5998 23.6 25.2998 23.8C24.9998 24 24.6998 24.2 24.2998 24.3C23.8998 24.4 23.4998 24.5 22.9998 24.5C21.3998 24.5 20.2998 23.8 19.4998 22.4C18.6998 21 18.2998 19.1 18.2998 16.6C18.2998 14 18.7998 12 19.6998 10.6C20.5998 9.2 22.0998 8.5 23.9998 8.5C24.7998 8.5 25.3998 8.6 25.9998 8.8C26.5998 9 27.0998 9.3 27.4998 9.7C27.8998 10.1 28.2998 10.5 28.4998 11C28.7998 11.5 28.9998 12.1 29.1998 12.6L26.5998 13.3C26.4998 13 26.3998 12.7 26.2998 12.4C26.1998 12.1 25.9998 11.8 25.7998 11.6C25.5998 11.4 25.3998 11.2 25.0998 11C24.7998 10.9 24.4998 10.8 24.0998 10.8C23.0998 10.8 22.4998 11.2 21.9998 11.9C21.5998 12.7 21.3998 13.7 21.3998 15V17.5C21.3998 18.2 21.3998 18.8 21.4998 19.3C21.5998 19.9 21.7998 20.3 21.9998 20.7C22.1998 21.1 22.4998 21.4 22.8998 21.6C23.2998 21.8 23.6998 21.9 24.1998 21.9C24.9998 21.9 25.5998 21.7 26.0998 21.2C26.4998 20.7 26.6998 20.1 26.6998 19.3V18H23.8998V15.9H29.2998V23.9H26.6998V22.1Z" fill="white"/>
<path d="M35.4996 24.2H32.5996V8.8H38.3996C39.8996 8.8 40.9996 9.2 41.7996 10.1C42.5996 11 42.9996 12.1 42.9996 13.6C42.9996 14.7 42.6996 15.7 42.1996 16.5C41.6996 17.3 40.8996 17.8 39.9996 18L43.2996 24.3H40.0996L37.1996 18.3H35.4996V24.2ZM37.7996 16C38.5996 16 39.0996 15.8 39.4996 15.5C39.7996 15.2 39.9996 14.7 39.9996 14V13.2C39.9996 12.5 39.7996 12 39.4996 11.7C39.1996 11.4 38.5996 11.2 37.7996 11.2H35.3996V16H37.7996Z" fill="white"/>
<path d="M46.0996 24.2V8.8H55.7996V11.2H48.9996V15.2H55.5996V17.6H48.9996V21.8H55.7996V24.2H46.0996Z" fill="white"/>
<path d="M59.5996 24.2V8.8H69.2996V11.2H62.4996V15.2H69.0996V17.6H62.4996V21.8H69.2996V24.2H59.5996Z" fill="white"/>
<path d="M75.3997 13.1H75.1997V24.1H72.6997V8.8H76.2997L80.2997 19.8H80.4997V8.8H82.9997V24.2H79.3997L75.3997 13.1Z" fill="white"/>
<path d="M89.2 24.2L85 8.8H88.2L90.1 16.6L91.2 21.5H91.4L92.5 16.6L94.4 8.8H97.4L93.2 24.2H89.2Z" fill="white"/>
<path d="M99.7998 24.2V22H103.3V11H99.7998V8.8H109.6V11H106.1V22H109.6V24.2H99.7998Z" fill="white"/>
<path d="M113.8 24.2V8.8H116.7V21.8H123.5V24.2H113.8Z" fill="white"/>
<path d="M6 -1H0V34H6V-1Z" fill="#C0EA6A"/>
</g>
<defs>
<clipPath id="clip0">
<rect width="138.7" height="35.2" fill="white"/>
</clipPath>
</defs>
</svg>
