<svg width="37" height="40" viewBox="0 0 37 40" fill="none" xmlns="http://www.w3.org/2000/svg">
<path d="M36.3393 2.66667H31.7143V0.666667C31.7143 0.266667 31.45 0 31.0536 0H26.4286C26.0321 0 25.7679 0.266667 25.7679 0.666667V2.66667H11.2321V0.666667C11.2321 0.266667 10.9679 0 10.5714 0H5.94643C5.55 0 5.28571 0.266667 5.28571 0.666667V2.66667H0.660714C0.264286 2.66667 0 2.93333 0 3.33333V10.6667V39.3333C0 39.7333 0.264286 40 0.660714 40H36.3393C36.7357 40 37 39.7333 37 39.3333V10.6667V3.33333C37 2.93333 36.7357 2.66667 36.3393 2.66667ZM27.0893 1.33333H30.3929V3.33333V5.33333H27.0893V3.33333V1.33333ZM6.60714 1.33333H9.91071V3.33333V5.33333H6.60714V3.33333V1.33333ZM1.32143 4H5.28571V6C5.28571 6.4 5.55 6.66667 5.94643 6.66667H10.5714C10.9679 6.66667 11.2321 6.4 11.2321 6V4H25.7679V6C25.7679 6.4 26.0321 6.66667 26.4286 6.66667H31.0536C31.45 6.66667 31.7143 6.4 31.7143 6V4H35.6786V10H1.32143V4ZM1.32143 38.6667V11.3333H35.6786V38.6667H1.32143Z" fill="#223258"/>
<path d="M23.7857 15.3333H19.1607H17.8393H13.2143H11.8928H5.94641V21.3333V22.6666V27.3333V28.6666V34.6666H11.8928H13.2143H17.8393H19.1607H23.7857H25.1071H31.0536V28.6666V27.3333V22.6666V21.3333V15.3333H25.1071H23.7857ZM19.1607 16.6666H23.7857V21.3333H19.1607V16.6666ZM23.7857 27.3333H19.1607V22.6666H23.7857V27.3333ZM13.2143 22.6666H17.8393V27.3333H13.2143V22.6666ZM13.2143 16.6666H17.8393V21.3333H13.2143V16.6666ZM7.26784 16.6666H11.8928V21.3333H7.26784V16.6666ZM7.26784 22.6666H11.8928V27.3333H7.26784V22.6666ZM11.8928 33.3333H7.26784V28.6666H11.8928V33.3333ZM17.8393 33.3333H13.2143V28.6666H17.8393V33.3333ZM23.7857 33.3333H19.1607V28.6666H23.7857V33.3333ZM29.7321 33.3333H25.1071V28.6666H29.7321V33.3333ZM29.7321 27.3333H25.1071V22.6666H29.7321V27.3333ZM29.7321 16.6666V21.3333H25.1071V16.6666H29.7321Z" fill="#223258"/>
</svg>
