<svg width="37" height="35" viewBox="0 0 37 35" fill="none" xmlns="http://www.w3.org/2000/svg">
<path d="M36.7309 0.139345C36.5291 0.00601133 36.3273 -0.0606553 36.1255 0.072678L24.2182 4.00601L12.9164 1.33934H12.8491C12.7818 1.33934 12.7145 1.33934 12.6473 1.33934L0.538182 4.00601C0.201818 4.07268 0 4.33934 0 4.67268V33.3393C0 33.5393 0.0672727 33.7393 0.269091 33.8727C0.403636 33.9393 0.538182 34.006 0.672727 34.006C0.74 34.006 0.74 34.006 0.807273 34.006L12.7818 31.3393L24.0836 33.3393C24.1509 33.3393 24.1509 33.3393 24.2182 33.3393C24.2855 33.3393 24.3527 33.3393 24.4873 33.2727L36.5964 28.606C36.8655 28.4727 37 28.2727 37 28.006V0.672678C37 0.472678 36.8655 0.272678 36.7309 0.139345ZM1.34545 5.20601L12.1091 2.80601V30.1393L1.34545 32.5393V5.20601ZM13.4545 2.87268L23.5455 5.20601V31.8727L13.4545 30.1393V2.87268ZM35.6545 27.5393L24.8909 31.6727V5.13934L35.6545 1.60601V27.5393Z" fill="#3F5586"/>
</svg>
