<svg width="41" height="40" viewBox="0 0 41 40" fill="none" xmlns="http://www.w3.org/2000/svg">
<path d="M20.701 17.3333C23.3138 17.3333 25.3906 15.2667 25.3906 12.6667C25.3906 10.0667 23.3138 8 20.701 8C18.0883 8 16.0115 10.0667 16.0115 12.6667C16.0115 15.2667 18.1553 17.3333 20.701 17.3333ZM20.701 9.33333C22.5768 9.33333 24.0507 10.8 24.0507 12.6667C24.0507 14.5333 22.5768 16 20.701 16C18.8252 16 17.3513 14.5333 17.3513 12.6667C17.3513 10.8 18.8922 9.33333 20.701 9.33333Z" fill="#3F5586"/>
<path d="M33.6307 24.6667H28.8072L30.817 21.7333C34.7026 16.6 34.0997 8.2 29.6111 3.73333C27.2663 1.33333 24.0507 0 20.634 0C17.2173 0 14.0016 1.33333 11.5229 3.73333C7.03431 8.2 6.49837 16.6 10.317 21.7333L12.3938 24.6667H7.36928L0 40H41L33.6307 24.6667ZM11.3889 20.9333C7.90523 16.3333 8.37418 8.73333 12.4608 4.66667C14.6046 2.53333 17.5523 1.33333 20.567 1.33333C23.5817 1.33333 26.5294 2.53333 28.6732 4.66667C32.6928 8.66667 33.2288 16.2667 29.7451 20.9333L20.634 34.1333L14.0016 24.6667L11.3889 20.9333ZM8.1732 26H13.2647L20.567 36.5333L27.9363 26H32.8268L38.8562 38.6667H2.14379L8.1732 26Z" fill="#3F5586"/>
</svg>
