<svg width="42" height="42" viewBox="0 0 42 42" fill="none" xmlns="http://www.w3.org/2000/svg">
<g clip-path="url(#clip0)">
<path d="M17.5496 0C7.85269 0 0 7.73171 0 17.2792C0 26.8267 7.85269 34.5584 17.5496 34.5584C21.7734 34.5584 25.8187 33.0941 28.9717 30.3997L29.2691 30.1068L40.6912 41.3529L41.9405 40.1229L30.5779 28.8768L30.8754 28.5839C33.6119 25.4795 35.0992 21.4379 35.0992 17.3378C35.0992 7.73171 27.2465 0 17.5496 0ZM17.5496 32.8012C8.86402 32.8012 1.7847 25.8309 1.7847 17.2792C1.7847 8.72746 8.86402 1.75721 17.5496 1.75721C26.2351 1.75721 33.3144 8.72746 33.3144 17.2792C33.3144 25.8309 26.2351 32.8012 17.5496 32.8012Z" fill="#3F5586"/>
</g>
<defs>
<clipPath id="clip0">
<rect width="42" height="41.3529" fill="white"/>
</clipPath>
</defs>
</svg>
