<svg width="43" height="44" viewBox="0 0 43 44" fill="none" xmlns="http://www.w3.org/2000/svg">
<path d="M21.2132 40.3848L2.82843 22L21.2132 3.61522L39.598 22L21.2132 40.3848Z" fill="#3D5485" stroke="#C0EA6A" stroke-width="4"/>
<path d="M24.4 27.6H24.2C24.1 27.9 23.9 28.2 23.7 28.5C23.5 28.8 23.3 29.1 23 29.3C22.7 29.5 22.4 29.7 22 29.8C21.6 29.9 21.2 30 20.7 30C19.1 30 18 29.3 17.2 27.9C16.4 26.5 16 24.6 16 22.1C16 19.5 16.5 17.5 17.4 16.1C18.3 14.7 19.8 14 21.7 14C22.5 14 23.1 14.1 23.7 14.3C24.3 14.5 24.8 14.8 25.2 15.2C25.6 15.6 26 16 26.2 16.5C26.5 17 26.7 17.6 26.9 18.1L24.3 18.8C24.2 18.5 24.1 18.2 24 17.9C23.9 17.6 23.7 17.3 23.5 17.1C23.3 16.9 23.1 16.7 22.8 16.5C22.5 16.4 22.2 16.3 21.8 16.3C20.8 16.3 20.2 16.7 19.7 17.4C19.3 18.2 19.1 19.2 19.1 20.5V23C19.1 23.7 19.1 24.3 19.2 24.8C19.3 25.4 19.5 25.8 19.7 26.2C19.9 26.6 20.2 26.9 20.6 27.1C21 27.3 21.4 27.4 21.9 27.4C22.7 27.4 23.3 27.2 23.8 26.7C24.2 26.2 24.4 25.6 24.4 24.8V23.5H21.6V21.4H27V29.4H24.4V27.6Z" fill="white"/>
</svg>
