<svg width="443" height="117" viewBox="0 0 443 117" fill="none" xmlns="http://www.w3.org/2000/svg">
<g clip-path="url(#clip0)">
<path d="M173.72 50.2483L216.921 21.8237C217.416 21.5093 218.002 21.3746 218.543 21.3746C219.083 21.3746 219.669 21.5093 220.164 21.8237L263.365 50.2483C264.626 51.0566 264.986 52.763 264.13 54.0203C263.32 55.2776 261.608 55.6369 260.346 54.7837L218.497 27.302L176.694 54.7837C175.432 55.592 173.72 55.2776 172.91 54.0203C172.099 52.763 172.459 51.0566 173.72 50.2483Z" fill="#C0EA6A"/>
<path d="M221.065 37.4056C227.597 37.4056 232.868 42.7043 232.868 49.1706C232.868 55.6369 227.552 60.9356 221.065 60.9356C214.533 60.9356 209.263 55.6369 209.263 49.1706C209.263 42.7043 214.533 37.4056 221.065 37.4056ZM212.551 47.5989H219.488V40.6836C215.975 41.3123 213.182 44.0964 212.551 47.5989ZM222.642 40.6836V47.5989H229.579C228.903 44.0964 226.156 41.3123 222.642 40.6836ZM229.534 50.7423H222.597V57.6576C226.156 56.984 228.903 54.2448 229.534 50.7423ZM219.488 57.6127V50.7423H212.551C213.182 54.2448 215.975 56.984 219.488 57.6127Z" fill="#2A3C64"/>
<path d="M132.682 48.0031L146.962 1.12262C147.142 0.449046 147.773 0 148.449 0H293.636C294.312 0 294.943 0.449046 295.123 1.12262L309.403 48.0031C309.538 48.497 309.448 48.991 309.178 49.3951C308.907 49.7992 308.412 50.0238 307.916 50.0238H303.276V114.597C303.276 115.45 302.556 116.168 301.7 116.168H255.887H186.829H141.196C140.34 116.168 139.619 115.45 139.619 114.597L139.349 50.0238H134.214C133.718 50.0238 133.223 49.7992 132.952 49.3951C132.637 48.991 132.547 48.4521 132.682 48.0031ZM300.123 50.0238H268.68C268.995 51.1913 268.86 52.4935 268.139 53.5712C267.509 54.5142 266.518 55.1878 265.392 55.4123C264.265 55.6368 263.094 55.4123 262.148 54.7837L257.463 51.6852V112.98H300.123V50.0238ZM177.279 50.2034C177.009 50.383 176.828 50.6524 176.783 50.9219C176.738 51.2362 176.783 51.5505 176.964 51.775C177.144 52.0445 177.414 52.2241 177.684 52.269C178 52.3139 178.315 52.269 178.54 52.0894L220.344 24.6077C220.614 24.4281 220.93 24.3383 221.2 24.3383C221.515 24.3383 221.786 24.4281 222.056 24.6077L263.86 52.0894C264.13 52.269 264.446 52.3139 264.716 52.269C265.031 52.2241 265.301 52.0445 265.437 51.775C265.617 51.5056 265.662 51.1913 265.617 50.9219C265.572 50.6075 265.392 50.3381 265.121 50.2034L221.921 21.7787C221.651 21.5991 221.425 21.5991 221.245 21.5991C221.2 21.5991 221.155 21.5991 221.11 21.5991C220.93 21.5991 220.659 21.5991 220.434 21.7787L177.279 50.2034ZM210.434 113.025H232.282V74.5417H210.434V113.025ZM207.28 113.025V73.0149C207.28 72.1618 208.001 71.4433 208.857 71.4433H233.813C234.669 71.4433 235.39 72.1618 235.39 73.0149V113.025H254.265V49.6196L221.2 27.8409L188.361 49.44V112.98H207.28V113.025ZM142.773 113.025H185.252V51.5505L180.342 54.7837C179.621 55.2327 178.811 55.5021 178 55.5021C177.729 55.5021 177.414 55.4572 177.099 55.4123C175.973 55.1878 174.981 54.5142 174.351 53.5712C173.63 52.4935 173.495 51.1913 173.81 50.0238H142.502L142.773 113.025ZM140.881 46.8804H176.423C176.468 46.8804 176.558 46.8804 176.603 46.8804L218.722 19.1743C219.443 18.6803 220.299 18.4558 221.2 18.4558C222.056 18.4558 222.957 18.6803 223.678 19.1743L265.797 46.8804C265.842 46.8804 265.932 46.8804 265.977 46.8804H305.799L292.465 3.14332H149.575L136.286 46.8804H140.881Z" fill="#2A3C64"/>
<path d="M269.536 61.3846H287.915C288.771 61.3846 289.492 62.1031 289.492 62.9563V90.3032C289.492 91.1564 288.771 91.8749 287.915 91.8749H269.536C268.68 91.8749 267.959 91.1564 267.959 90.3032V62.9563C267.959 62.1031 268.68 61.3846 269.536 61.3846ZM271.113 88.7765H286.339V64.5729H271.113V88.7765Z" fill="#2A3C64"/>
<path d="M174.892 62.9563V90.3032C174.892 91.1564 174.171 91.8749 173.315 91.8749H154.936C154.08 91.8749 153.359 91.1564 153.359 90.3032V62.9563C153.359 62.1031 154.08 61.3846 154.936 61.3846H173.315C174.216 61.3846 174.892 62.1031 174.892 62.9563ZM171.738 64.528H156.512V88.7316H171.738V64.528Z" fill="#2A3C64"/>
</g>
<g clip-path="url(#clip1)">
<path d="M374.694 70.6699C374.694 75.0916 378.315 78.6595 382.733 78.6595C387.183 78.6595 390.773 75.0611 390.773 70.6699C390.773 66.2786 387.152 62.6802 382.733 62.6802C378.315 62.6802 374.694 66.2481 374.694 70.6699ZM383.807 64.9063C386.201 65.3332 388.073 67.2239 388.533 69.6025H383.807V64.9063ZM383.807 71.7372H388.533C388.103 74.1158 386.201 75.976 383.807 76.4334V71.7372ZM381.659 76.4029C379.266 75.976 377.394 74.0853 376.934 71.7067H381.659V76.4029ZM381.659 64.9063V69.6025H376.934C377.394 67.2239 379.266 65.3332 381.659 64.9063Z" fill="#DEDEDE"/>
<path d="M442.94 69.877L433.213 38.0403C433.09 37.5828 432.66 37.2779 432.2 37.2779H333.3C332.839 37.2779 332.41 37.5828 332.287 38.0403L322.56 69.877C322.468 70.2124 322.529 70.5479 322.713 70.8223C322.928 71.0968 323.235 71.2493 323.572 71.2493H326.733V115.101C326.733 115.68 327.224 116.168 327.807 116.168H359.014H406.056H437.14C437.723 116.168 438.214 115.68 438.214 115.101L438.398 71.2493H441.897C442.234 71.2493 442.572 71.0968 442.756 70.8223C442.94 70.5479 443.032 70.1819 442.94 69.877ZM357.94 114.034H328.881V71.2493H350.3C350.085 72.0421 350.177 72.9265 350.668 73.6584C351.097 74.2988 351.773 74.7562 352.54 74.9086C353.307 75.0611 354.105 74.9086 354.749 74.4817L357.94 72.3776V114.034ZM389.976 114.034H375.094V87.8995H389.976V114.034ZM405.012 114.034H392.155V86.8627C392.155 86.2833 391.664 85.7953 391.081 85.7953H374.05C373.467 85.7953 372.976 86.2833 372.976 86.8627V114.034H360.119V70.9748L382.642 56.1848L405.012 70.8528V114.034ZM383.225 54.0196C383.041 53.8976 382.827 53.8366 382.642 53.8366C382.458 53.8366 382.244 53.8976 382.059 54.0196L353.583 72.6825C353.399 72.8045 353.184 72.835 353 72.8045C352.785 72.774 352.601 72.652 352.509 72.4691C352.386 72.2861 352.356 72.0726 352.386 71.8896C352.417 71.7067 352.54 71.4932 352.724 71.4017L382.151 52.0984C382.336 51.9765 382.489 51.9765 382.612 51.9765C382.642 51.9765 382.673 51.9765 382.704 51.9765C382.827 51.9765 383.011 51.9765 383.164 52.0984L412.592 71.4017C412.776 71.5237 412.899 71.7067 412.929 71.8896C412.96 72.1031 412.929 72.3166 412.807 72.4691C412.684 72.652 412.5 72.774 412.316 72.8045C412.101 72.835 411.886 72.8045 411.733 72.6825L383.225 54.0196ZM436.066 114.034H407.13V72.2861L410.474 74.4817C410.965 74.7867 411.518 74.9696 412.07 74.9696C412.254 74.9696 412.469 74.9391 412.684 74.9086C413.451 74.7562 414.126 74.2988 414.556 73.6584C415.047 72.9265 415.139 72.0421 414.924 71.2493H436.25L436.066 114.034ZM437.355 69.1146H413.144C413.113 69.1146 413.052 69.1146 413.021 69.1146L384.33 50.2992C383.839 49.9638 383.256 49.8113 382.642 49.8113C382.059 49.8113 381.446 49.9638 380.955 50.2992L352.264 69.1146C352.233 69.1146 352.171 69.1146 352.141 69.1146H325.015L334.098 39.4125H431.433L440.485 69.1146H437.355Z" fill="#DEDEDE"/>
<path d="M349.715 78.9645H337.196C336.613 78.9645 336.122 79.4524 336.122 80.0318V98.6032C336.122 99.1826 336.613 99.6705 337.196 99.6705H349.715C350.298 99.6705 350.789 99.1826 350.789 98.6032V80.0318C350.789 79.4524 350.298 78.9645 349.715 78.9645ZM348.641 97.5664H338.27V81.1296H348.641V97.5664Z" fill="#DEDEDE"/>
<path d="M414.186 80.0318V98.6032C414.186 99.1826 414.677 99.6705 415.26 99.6705H427.78C428.363 99.6705 428.854 99.1826 428.854 98.6032V80.0318C428.854 79.4524 428.363 78.9645 427.78 78.9645H415.26C414.646 78.9645 414.186 79.4524 414.186 80.0318ZM416.334 81.0991H426.706V97.5359H416.334V81.0991Z" fill="#DEDEDE"/>
</g>
<g clip-path="url(#clip2)">
<path d="M52.1965 70.6699C52.1965 75.0916 55.8174 78.6595 60.2362 78.6595C64.6856 78.6595 68.2759 75.0611 68.2759 70.6699C68.2759 66.2786 64.6549 62.6802 60.2362 62.6802C55.8174 62.6802 52.1965 66.2481 52.1965 70.6699ZM61.3102 64.9063C63.7037 65.3332 65.5755 67.2239 66.0358 69.6025H61.3102V64.9063ZM61.3102 71.7372H66.0358C65.6062 74.1158 63.7037 75.976 61.3102 76.4334V71.7372ZM59.1622 76.4029C56.7687 75.976 54.8969 74.0853 54.4366 71.7067H59.1622V76.4029ZM59.1622 64.9063V69.6025H54.4366C54.8969 67.2239 56.7687 65.3332 59.1622 64.9063Z" fill="#DEDEDE"/>
<path d="M120.443 69.877L110.716 38.0403C110.593 37.5828 110.163 37.2779 109.703 37.2779H10.8028C10.3425 37.2779 9.91293 37.5828 9.79018 38.0403L0.0628018 69.877C-0.0292555 70.2124 0.032116 70.5479 0.21623 70.8223C0.431031 71.0968 0.737888 71.2493 1.07543 71.2493H4.23606V115.101C4.23606 115.68 4.72703 116.168 5.31006 116.168H36.5175H83.5587H114.643C115.226 116.168 115.717 115.68 115.717 115.101L115.901 71.2493H119.4C119.737 71.2493 120.075 71.0968 120.259 70.8223C120.443 70.5479 120.535 70.1819 120.443 69.877ZM35.4435 114.034H6.38407V71.2493H27.8027C27.5879 72.0421 27.68 72.9265 28.1709 73.6584C28.6005 74.2988 29.2756 74.7562 30.0428 74.9086C30.8099 75.0611 31.6077 74.9086 32.2521 74.4817L35.4435 72.3776V114.034ZM67.4794 114.034H52.5968V87.8995H67.4794V114.034ZM82.5154 114.034H69.6581V86.8627C69.6581 86.2833 69.1671 85.7953 68.5841 85.7953H51.5535C50.9705 85.7953 50.4795 86.2833 50.4795 86.8627V114.034H37.6222V70.9748L60.1455 56.1848L82.5154 70.8528V114.034ZM60.7285 54.0196C60.5444 53.8976 60.3296 53.8366 60.1455 53.8366C59.9614 53.8366 59.7466 53.8976 59.5625 54.0196L31.0861 72.6825C30.902 72.8045 30.6872 72.835 30.5031 72.8045C30.2883 72.774 30.1041 72.652 30.0121 72.4691C29.8893 72.2861 29.8587 72.0726 29.8893 71.8896C29.92 71.7067 30.0428 71.4932 30.2269 71.4017L59.6545 52.0984C59.8386 51.9765 59.9921 51.9765 60.1148 51.9765C60.1455 51.9765 60.1762 51.9765 60.2069 51.9765C60.3296 51.9765 60.5137 51.9765 60.6671 52.0984L90.0948 71.4017C90.2789 71.5237 90.4016 71.7067 90.4323 71.8896C90.463 72.1031 90.4323 72.3166 90.3096 72.4691C90.1868 72.652 90.0027 72.774 89.8186 72.8045C89.6038 72.835 89.389 72.8045 89.2356 72.6825L60.7285 54.0196ZM113.569 114.034H84.6327V72.2861L87.9775 74.4817C88.4684 74.7867 89.0208 74.9696 89.5731 74.9696C89.7572 74.9696 89.972 74.9391 90.1868 74.9086C90.954 74.7562 91.6291 74.2988 92.0587 73.6584C92.5496 72.9265 92.6417 72.0421 92.4269 71.2493H113.753L113.569 114.034ZM114.858 69.1146H90.6471C90.6164 69.1146 90.5551 69.1146 90.5244 69.1146L61.8332 50.2992C61.3422 49.9638 60.7592 49.8113 60.1455 49.8113C59.5625 49.8113 58.9487 49.9638 58.4578 50.2992L29.7666 69.1146C29.7359 69.1146 29.6745 69.1146 29.6439 69.1146H2.51766L11.6006 39.4125H108.936L117.988 69.1146H114.858Z" fill="#DEDEDE"/>
<path d="M27.2183 78.9645H14.6985C14.1155 78.9645 13.6245 79.4524 13.6245 80.0318V98.6032C13.6245 99.1826 14.1155 99.6705 14.6985 99.6705H27.2183C27.8013 99.6705 28.2923 99.1826 28.2923 98.6032V80.0318C28.2923 79.4524 27.8013 78.9645 27.2183 78.9645ZM26.1443 97.5664H15.7725V81.1296H26.1443V97.5664Z" fill="#DEDEDE"/>
<path d="M91.6892 80.0318V98.6032C91.6892 99.1826 92.1802 99.6705 92.7632 99.6705H105.283C105.866 99.6705 106.357 99.1826 106.357 98.6032V80.0318C106.357 79.4524 105.866 78.9645 105.283 78.9645H92.7632C92.1495 78.9645 91.6892 79.4524 91.6892 80.0318ZM93.8372 81.0991H104.209V97.5359H93.8372V81.0991Z" fill="#DEDEDE"/>
</g>
<defs>
<clipPath id="clip0">
<rect width="208.93" height="116.168" fill="white" transform="matrix(-1 0 0 1 309.493 0)"/>
</clipPath>
<clipPath id="clip1">
<rect width="120.503" height="78.8904" fill="white" transform="translate(322.497 37.2779)"/>
</clipPath>
<clipPath id="clip2">
<rect width="120.503" height="78.8904" fill="white" transform="translate(0 37.2779)"/>
</clipPath>
</defs>
</svg>
