<svg width="143" height="31" viewBox="0 0 143 31" fill="none" xmlns="http://www.w3.org/2000/svg">
<path d="M72.7218 26.2955C72.7218 28.0038 71.6111 29.0119 70.0561 29.0119C69.2787 29.0119 68.5845 28.6199 68.2791 28.2278V28.9559H67.1406V20.6948H68.2791V24.3633C68.6123 23.9712 69.2787 23.5792 70.0561 23.5792C71.6111 23.5792 72.7218 24.6993 72.7218 26.2955ZM71.5833 26.2955C71.5833 25.2314 71.0002 24.4753 69.9451 24.4753C68.8899 24.4753 68.3068 25.2314 68.3068 26.2955C68.3068 27.3597 68.8899 28.1158 69.9451 28.1158C70.9725 28.1158 71.5833 27.3597 71.5833 26.2955Z" fill="#C5C5C5"/>
<path d="M76.0261 24.4752C74.9988 24.4752 74.7766 25.3433 74.7766 26.4635V28.9838H73.6382V23.6351H74.7766V24.5312C74.9155 24.0552 75.3875 23.5791 76.165 23.5791C76.5815 23.5791 76.8869 23.7471 77.0535 23.9431L76.8036 24.8113C76.7481 24.7272 76.4982 24.4752 76.0261 24.4752Z" fill="#C5C5C5"/>
<path d="M81.9959 25.6795V28.956H80.8575V28.3959C80.4687 28.928 79.7468 29.012 79.1915 29.012C78.1641 29.012 77.3311 28.4519 77.3311 27.4158C77.3311 26.2116 78.3584 25.6515 79.8579 25.6515H80.8575C80.8575 25.0075 80.6353 24.4754 79.8856 24.4754C79.3581 24.4754 78.9971 24.6434 78.525 25.0075L77.8031 24.4754C78.3862 23.9153 79.1914 23.5513 79.9689 23.5513C81.3017 23.5793 81.9959 24.2234 81.9959 25.6795ZM80.8575 26.6317H79.9967C78.8582 26.6317 78.4695 26.8837 78.4695 27.3878C78.4695 27.9198 78.9415 28.1439 79.4414 28.1439C80.5243 28.1439 80.8575 27.6958 80.8575 27.1357V26.6317Z" fill="#C5C5C5"/>
<path d="M87.0772 28.9558V25.9874C87.0772 24.9233 86.633 24.4472 85.6889 24.4472C84.7448 24.4472 84.3006 24.9233 84.3006 25.9874V28.9558H83.1621V23.6351H84.3006V24.4192C84.6893 23.9431 85.2724 23.5791 86.2442 23.5791C87.4104 23.5791 88.2157 24.1672 88.2157 25.6794V28.9558H87.0772Z" fill="#C5C5C5"/>
<path d="M93.4637 24.3633V20.6948H94.6022V28.9839H93.4637V28.2558C93.1305 28.6479 92.4641 29.0399 91.6866 29.0399C90.1317 29.0399 89.021 28.0318 89.021 26.3236C89.021 24.6993 90.1317 23.6072 91.6866 23.6072C92.4641 23.5792 93.1583 23.9712 93.4637 24.3633ZM93.4637 26.2955C93.4637 25.2314 92.8806 24.4753 91.8255 24.4753C90.7703 24.4753 90.1872 25.2314 90.1872 26.2955C90.1872 27.3597 90.7703 28.1158 91.8255 28.1158C92.8806 28.1158 93.4637 27.3597 93.4637 26.2955Z" fill="#C5C5C5"/>
<path d="M96.3794 22.3191C96.0462 22.3191 95.7686 22.067 95.7686 21.703C95.7686 21.3669 96.0462 21.0869 96.3794 21.0869C96.7404 21.0869 96.9903 21.3669 96.9903 21.703C97.0181 22.039 96.7404 22.3191 96.3794 22.3191ZM95.8241 28.9559V23.6352H96.9626V28.9839L95.8241 28.9559Z" fill="#C5C5C5"/>
<path d="M102.071 28.9558V25.9874C102.071 24.9233 101.627 24.4472 100.683 24.4472C99.739 24.4472 99.2947 24.9233 99.2947 25.9874V28.9558H98.1562V23.6351H99.2947V24.4192C99.6834 23.9431 100.267 23.5791 101.238 23.5791C102.405 23.5791 103.21 24.1672 103.21 25.6794V28.9558H102.071Z" fill="#C5C5C5"/>
<path d="M109.735 23.6351V28.3117C109.735 30.3 108.597 31.0001 107.153 31.0001C105.681 31.0001 104.821 30.468 104.376 30.16L104.876 29.4599C105.209 29.6559 105.987 30.0759 106.875 30.0759C107.986 30.0759 108.597 29.6279 108.597 28.2277C108.264 28.6198 107.597 29.0118 106.82 29.0118C105.265 29.0118 104.154 27.8917 104.154 26.2955C104.154 24.5872 105.265 23.5791 106.82 23.5791C107.597 23.5791 108.292 23.9712 108.597 24.3632V23.6351H109.735ZM108.597 26.2955C108.597 25.2313 108.014 24.4752 106.959 24.4752C105.904 24.4752 105.321 25.2313 105.321 26.2955C105.321 27.3596 105.904 28.1157 106.959 28.1157C108.014 28.1157 108.597 27.3596 108.597 26.2955Z" fill="#C5C5C5"/>
<path d="M111.679 29.012C111.235 29.012 110.901 28.676 110.901 28.2559C110.901 27.8639 111.235 27.5278 111.679 27.5278C112.123 27.5278 112.484 27.8639 112.484 28.2559C112.456 28.676 112.123 29.012 111.679 29.012Z" fill="#C5C5C5"/>
<path d="M119.037 24.3633V20.6948H120.175V28.9839H119.037V28.2558C118.704 28.6479 118.037 29.0399 117.26 29.0399C115.705 29.0399 114.594 28.0318 114.594 26.3236C114.594 24.6993 115.705 23.6072 117.26 23.6072C118.037 23.5792 118.732 23.9712 119.037 24.3633ZM119.037 26.2955C119.037 25.2314 118.454 24.4753 117.399 24.4753C116.344 24.4753 115.76 25.2314 115.76 26.2955C115.76 27.3597 116.344 28.1158 117.399 28.1158C118.454 28.1158 119.037 27.3597 119.037 26.2955Z" fill="#C5C5C5"/>
<path d="M121.953 22.3191C121.619 22.3191 121.342 22.067 121.342 21.703C121.342 21.3669 121.619 21.0869 121.953 21.0869C122.314 21.0869 122.564 21.3669 122.564 21.703C122.591 22.039 122.314 22.3191 121.953 22.3191ZM121.397 28.9559V23.6352H122.536V28.9839L121.397 28.9559Z" fill="#C5C5C5"/>
<path d="M129.088 23.6351V28.3117C129.088 30.3 127.95 31.0001 126.506 31.0001C125.035 31.0001 124.174 30.468 123.729 30.16L124.229 29.4599C124.562 29.6559 125.34 30.0759 126.228 30.0759C127.339 30.0759 127.95 29.6279 127.95 28.2277C127.617 28.6198 126.95 29.0118 126.173 29.0118C124.618 29.0118 123.507 27.8917 123.507 26.2955C123.507 24.5872 124.618 23.5791 126.173 23.5791C126.95 23.5791 127.645 23.9712 127.95 24.3632V23.6351H129.088ZM127.95 26.2955C127.95 25.2313 127.367 24.4752 126.312 24.4752C125.257 24.4752 124.674 25.2313 124.674 26.2955C124.674 27.3596 125.257 28.1157 126.312 28.1157C127.367 28.1157 127.95 27.3596 127.95 26.2955Z" fill="#C5C5C5"/>
<path d="M130.755 22.3191C130.422 22.3191 130.144 22.067 130.144 21.703C130.144 21.3669 130.422 21.0869 130.755 21.0869C131.116 21.0869 131.366 21.3669 131.366 21.703C131.366 22.039 131.116 22.3191 130.755 22.3191ZM130.172 28.9559V23.6352H131.31V28.9839L130.172 28.9559Z" fill="#C5C5C5"/>
<path d="M135.114 28.8439C134.864 28.9279 134.642 29.0119 134.225 29.0119C133.226 29.0119 132.976 28.3678 132.976 26.9397V24.5314H132.31V23.6352H132.976V22.4031H134.114V23.6352H135.114V24.5314H134.114V26.7436C134.114 27.8078 134.087 28.2278 135.114 28.0318V28.8439Z" fill="#C5C5C5"/>
<path d="M140.696 25.6795V28.956H139.557V28.3959C139.168 28.928 138.446 29.012 137.891 29.012C136.864 29.012 136.031 28.4519 136.031 27.4158C136.031 26.2116 137.058 25.6515 138.558 25.6515H139.557C139.557 25.0075 139.335 24.4754 138.585 24.4754C138.058 24.4754 137.697 24.6434 137.225 25.0075L136.503 24.4754C137.086 23.9153 137.891 23.5513 138.669 23.5513C140.001 23.5793 140.696 24.2234 140.696 25.6795ZM139.557 26.6317H138.696C137.558 26.6317 137.169 26.8837 137.169 27.3878C137.169 27.9198 137.641 28.1439 138.141 28.1439C139.224 28.1439 139.557 27.6958 139.557 27.1357V26.6317Z" fill="#C5C5C5"/>
<path d="M141.834 28.9559V20.6948H142.972V28.9839L141.834 28.9559Z" fill="#C5C5C5"/>
<path d="M6.49748 11.3973C8.35787 12.2374 9.57961 13.2176 9.57961 14.8978C9.57961 17.0821 7.66369 18.2862 5.22019 18.2862C3.44311 18.2862 1.24951 17.5301 0 16.1019L2.08252 14.0017C3.0266 14.9818 4.16505 15.4578 4.91476 15.4578C5.6367 15.4578 5.99767 15.2058 5.99767 14.7017C5.99767 13.9456 5.16466 13.5256 3.60971 12.7695C1.58272 11.7614 0.694175 10.8372 0.694175 9.43707C0.694175 6.94475 3.35981 6.16064 4.99806 6.16064C6.60854 6.16064 8.52447 6.74872 9.66291 8.09289L7.66369 10.1372C7.05282 9.52108 6.21981 9.01701 5.3035 9.01701C4.88699 9.01701 4.27612 9.21304 4.27612 9.7171C4.27612 10.2772 4.63709 10.5572 6.49748 11.3973Z" fill="#C5C5C5"/>
<path d="M18.6595 18.1743V11.2575C18.6595 9.49323 18.0208 8.73713 16.6602 8.73713C15.2719 8.73713 14.661 9.49323 14.661 11.2575V18.1463H11.2734V0H14.6888V7.61698C15.4385 6.66486 16.7991 6.16079 18.0208 6.16079C20.742 6.16079 22.0748 7.729 22.0748 11.0334L22.1026 18.1743H18.6595Z" fill="#C5C5C5"/>
<path d="M34.0977 11.1735V18.1744H30.5158V16.8862C29.9882 17.6703 29.0441 18.2864 27.267 18.2864C24.8513 18.2864 23.4907 16.9422 23.4907 14.7859C23.4907 11.9576 25.601 10.8934 28.7387 10.8934H30.5158C30.5158 9.60526 29.8216 9.01718 28.9053 9.01718C28.1556 9.01718 27.3781 9.29722 26.5729 9.99731L24.5181 8.23308C25.6565 7.05693 27.3503 6.18882 29.4329 6.18882C32.5428 6.16081 34.0977 7.86903 34.0977 11.1735ZM30.5158 13.4978H29.2663C27.628 13.4978 27.0727 13.8338 27.0727 14.6739C27.0727 15.514 27.7113 15.8781 28.5721 15.8781C30.0993 15.8781 30.5158 15.122 30.5158 14.1418V13.4978Z" fill="#C5C5C5"/>
<path d="M39.7348 16.578V22.4868H36.1528V6.27266H39.7348V7.86887C40.7344 6.5527 42.3449 6.16064 43.5111 6.16064C46.4266 6.16064 48.7035 8.20491 48.7035 12.2094C48.7035 15.9899 46.4266 18.2582 43.5111 18.2582C42.3449 18.2862 40.7344 17.9222 39.7348 16.578ZM39.7348 12.2094C39.7348 14.0857 40.7066 15.4298 42.4282 15.4298C44.1497 15.4298 45.1216 14.1137 45.1216 12.2094C45.1216 10.3332 44.1497 8.98901 42.4282 8.98901C40.7066 9.01701 39.7348 10.3612 39.7348 12.2094Z" fill="#C5C5C5"/>
<path d="M53.2295 13.3296C53.2295 14.6738 54.5345 15.4579 55.8673 15.4579C56.7837 15.4579 57.8666 15.0939 58.5607 14.3378L60.6988 16.326C59.4493 17.5582 57.8666 18.3143 55.7007 18.3143C51.9522 18.3143 49.6753 15.6259 49.6753 12.2375C49.6753 8.84906 51.9522 6.18872 55.5064 6.18872C59.1161 6.18872 61.3652 8.76505 61.3652 12.2375V13.4137L53.2295 13.3296ZM55.4786 9.01709C54.2291 9.01709 53.2295 9.85719 53.2295 11.1454H57.7277C57.7555 9.85719 56.7837 9.01709 55.4786 9.01709Z" fill="#C5C5C5"/>
<path d="M78.3583 16.998C77.3587 17.7541 75.7204 18.2862 73.6935 18.2862C70.417 18.2862 66.8628 16.5499 66.8628 12.8815C66.8628 9.9411 69.0841 8.51291 70.8612 7.89683C69.6673 6.63667 69.0841 5.76856 69.0841 4.5364C69.0841 2.2401 71.1667 0.587891 74.0544 0.587891C76.7478 0.587891 79.0247 2.2401 79.0247 4.5364C79.0247 6.49665 77.6086 7.81282 75.9704 8.62493L78.7748 12.1814C79.1913 11.7053 79.4968 11.0892 79.6911 10.4452L82.9399 12.0414C82.5234 13.0775 81.8569 14.2817 81.0795 15.0938L83.6618 18.2022H79.3302L78.3583 16.998ZM72.6106 9.82908C71.1667 10.5852 70.5836 11.6493 70.5836 12.6574C70.5836 14.4217 72.1663 15.2058 73.4991 15.2058C74.5542 15.2058 75.3872 15.0098 76.3036 14.3657L72.6106 9.82908ZM72.7772 4.87244C72.7772 5.62854 73.277 6.0766 74.0544 6.0766C74.8041 6.0766 75.3317 5.60054 75.3317 4.87244C75.3317 4.14435 74.8319 3.66829 74.0544 3.66829C73.3047 3.66829 72.7772 4.14435 72.7772 4.87244Z" fill="#C5C5C5"/>
<path d="M94.7963 11.3973C96.6567 12.2374 97.8784 13.2176 97.8784 14.8978C97.8784 17.0821 95.9625 18.2862 93.519 18.2862C91.7419 18.2862 89.5483 17.5301 88.2988 16.1019L90.3814 14.0017C91.3254 14.9818 92.4639 15.4578 93.2136 15.4578C93.9355 15.4578 94.2965 15.2058 94.2965 14.7017C94.2965 13.9456 93.4635 13.5256 91.9085 12.7695C89.9093 11.7614 88.993 10.8653 88.993 9.43707C88.993 6.94475 91.6586 6.16064 93.2969 6.16064C94.9074 6.16064 96.8233 6.74872 97.9617 8.09289L95.9625 10.1092C95.3516 9.49307 94.5186 8.98901 93.6023 8.98901C93.1858 8.98901 92.5749 9.18503 92.5749 9.6891C92.5749 10.2772 92.9359 10.5572 94.7963 11.3973Z" fill="#C5C5C5"/>
<path d="M104.876 18.2862C101.544 18.2862 98.8784 15.6539 98.8784 12.2374C98.8784 8.82099 101.572 6.16064 104.876 6.16064C107.153 6.16064 108.597 7.05676 109.652 8.51295L107.486 10.4732C106.792 9.29705 105.876 9.01701 105.126 9.01701C103.488 9.01701 102.46 10.4172 102.46 12.2654C102.46 14.0857 103.488 15.4578 105.126 15.4578C105.876 15.4578 106.792 15.2618 107.514 14.0017L109.68 15.9619C108.597 17.3621 107.153 18.2862 104.876 18.2862Z" fill="#C5C5C5"/>
<path d="M117.121 9.01701C115.094 9.01701 114.622 10.5572 114.622 13.3856V18.1742H111.04V6.27266H114.622V8.23291C114.983 6.91674 115.899 6.16064 117.482 6.16064C118.343 6.16064 118.954 6.49669 119.342 6.97275L118.843 9.74511C118.676 9.57709 118.093 9.01701 117.121 9.01701Z" fill="#C5C5C5"/>
<path d="M132.143 12.2374C132.143 16.1299 129.255 18.2862 125.979 18.2862C122.702 18.2862 119.814 16.1299 119.814 12.2374C119.814 8.34493 122.702 6.16064 125.979 6.16064C129.255 6.16064 132.143 8.34493 132.143 12.2374ZM123.396 12.2374C123.396 14.1137 124.257 15.4298 125.979 15.4298C127.7 15.4298 128.561 14.1137 128.561 12.2374C128.561 10.3612 127.7 8.98901 125.979 8.98901C124.257 9.01701 123.396 10.3612 123.396 12.2374Z" fill="#C5C5C5"/>
<path d="M133.781 18.1743V0H137.363V18.1743H133.781Z" fill="#C5C5C5"/>
<path d="M139.418 18.1743V0H143V18.1743H139.418Z" fill="#C5C5C5"/>
</svg>
