<svg width="494" height="176" viewBox="0 0 494 176" fill="none" xmlns="http://www.w3.org/2000/svg">
<path d="M232.963 41.7235L287.557 5.61299C288.17 5.20358 288.905 5.03981 289.6 5.03981C290.294 4.99887 291.03 5.20358 291.643 5.61299L346.236 41.7235C347.83 42.788 348.279 44.9579 347.217 46.5137C346.155 48.1104 343.989 48.5607 342.436 47.4963L289.6 12.614L236.804 47.5372C235.211 48.6017 233.045 48.1513 232.023 46.5546C230.961 44.9579 231.41 42.788 232.963 41.7235Z" fill="#C0EA6A"/>
<path d="M355.185 175.193C354.409 175.193 353.755 174.538 353.755 173.76V105.429C353.755 104.651 354.409 103.996 355.185 103.996C355.962 103.996 356.616 104.651 356.616 105.429V173.76C356.616 174.579 355.962 175.193 355.185 175.193Z" fill="#2A3C64"/>
<path d="M355.186 119.554C354.818 119.554 354.45 119.431 354.164 119.144L348.607 113.535C348.034 112.962 348.034 112.061 348.607 111.529C349.179 110.956 350.078 110.956 350.65 111.529L356.248 117.138C356.82 117.711 356.82 118.612 356.248 119.144C355.921 119.431 355.553 119.554 355.186 119.554Z" fill="#2A3C64"/>
<path d="M355.185 129.993C354.899 129.993 354.613 129.912 354.368 129.748C353.714 129.297 353.551 128.397 354 127.742L360.13 118.898C360.579 118.243 361.478 118.079 362.132 118.53C362.786 118.98 362.95 119.881 362.5 120.536L356.371 129.379C356.084 129.789 355.635 129.993 355.185 129.993Z" fill="#2A3C64"/>
<path d="M355.349 148.376C355.226 148.376 355.104 148.376 354.981 148.335C354.654 148.253 346.727 146.084 343.948 135.07C341.128 123.852 347.013 85.6537 352.734 78.3252C353.306 77.5882 353.96 77.056 354.613 76.8513C354.818 76.7694 355.022 76.6875 355.226 76.6875H355.431C355.676 76.6875 355.88 76.7284 356.044 76.8513C356.697 77.0969 357.31 77.5882 357.923 78.3252C363.644 85.6947 369.529 123.852 366.709 135.07C363.93 146.084 356.003 148.253 355.676 148.335C355.594 148.376 355.472 148.376 355.349 148.376ZM355.349 79.6762C354.082 80.6998 351.099 87.2095 348.402 103.177C346.114 116.769 345.46 129.297 346.727 134.374C348.77 142.522 353.919 144.937 355.349 145.469C356.779 144.937 361.887 142.522 363.971 134.374C365.279 129.297 364.584 116.728 362.296 103.177C359.599 87.1686 356.616 80.6588 355.349 79.6762Z" fill="#2A3C64"/>
<path d="M152.177 171.999C151.4 171.999 150.746 171.344 150.746 170.566V137.281C150.746 136.503 151.4 135.848 152.177 135.848C152.953 135.848 153.607 136.503 153.607 137.281V170.566C153.607 171.385 152.953 171.999 152.177 171.999Z" fill="#2A3C64"/>
<path d="M152.177 144.773C151.809 144.773 151.441 144.651 151.155 144.364L147.927 141.13C147.355 140.556 147.355 139.656 147.927 139.123C148.499 138.55 149.398 138.55 149.929 139.123L153.157 142.358C153.729 142.931 153.729 143.832 153.157 144.364C152.912 144.651 152.544 144.773 152.177 144.773Z" fill="#2A3C64"/>
<path d="M152.136 150.546C151.85 150.546 151.564 150.464 151.318 150.3C150.665 149.85 150.501 148.949 150.951 148.294L154.833 142.522C155.282 141.866 156.181 141.703 156.835 142.153C157.489 142.603 157.652 143.504 157.203 144.159L153.321 149.932C153.076 150.341 152.626 150.546 152.136 150.546Z" fill="#2A3C64"/>
<path d="M152.177 154.927C144.903 154.927 138.978 149.031 138.978 141.744C138.978 134.456 144.903 128.52 152.177 128.52C159.45 128.52 165.375 134.456 165.375 141.744C165.335 149.031 159.409 154.927 152.177 154.927ZM152.177 131.385C146.456 131.385 141.838 136.012 141.838 141.744C141.838 147.435 146.456 152.102 152.177 152.102C157.857 152.102 162.515 147.475 162.515 141.744C162.474 136.012 157.857 131.385 152.177 131.385Z" fill="#2A3C64"/>
<path d="M233.821 45.8994C232.228 45.8994 230.675 45.1215 229.735 43.6885C228.264 41.4368 228.877 38.3661 231.124 36.8922L285.718 0.82268C286.576 0.249498 287.516 0.00384833 288.537 0.00384833C289.559 -0.0370933 290.54 0.249498 291.357 0.82268L345.95 36.9332C348.198 38.4071 348.811 41.4777 347.34 43.7295C345.869 45.9813 342.804 46.5954 340.556 45.1215L288.537 10.6896L236.518 45.1215C235.701 45.6537 234.761 45.8994 233.821 45.8994ZM232.718 39.3078C231.778 39.9219 231.533 41.1911 232.146 42.1328C232.759 43.0744 234.026 43.3201 234.966 42.7059L287.761 7.78275C288.251 7.45522 288.864 7.45522 289.355 7.78275L342.15 42.7059C343.09 43.3201 344.357 43.0744 344.97 42.1328C345.583 41.1911 345.337 39.9219 344.397 39.3078L289.804 3.19729C289.436 2.95164 289.028 2.86976 288.619 2.86976C288.578 2.86976 288.537 2.86976 288.497 2.86976C288.088 2.86976 287.638 2.95164 287.311 3.19729L232.718 39.3078Z" fill="#2A3C64"/>
<path d="M338.186 172.409H239.297C238.521 172.409 237.867 171.754 237.867 170.976V41.5597C237.867 40.7818 238.521 40.1267 239.297 40.1267C240.074 40.1267 240.727 40.7818 240.727 41.5597V169.543H336.756V42.2966C336.756 41.5187 337.41 40.8637 338.186 40.8637C338.963 40.8637 339.617 41.5187 339.617 42.2966V170.935C339.617 171.754 339.004 172.409 338.186 172.409Z" fill="#2A3C64"/>
<path d="M288.742 42.9925C282.817 42.9925 278.036 38.1614 278.036 32.2658C278.036 26.3292 282.857 21.5391 288.742 21.5391C294.667 21.5391 299.448 26.3702 299.448 32.2658C299.448 38.1614 294.667 42.9925 288.742 42.9925ZM288.742 24.405C284.41 24.405 280.896 27.926 280.896 32.2658C280.896 36.6056 284.41 40.1266 288.742 40.1266C293.073 40.1266 296.587 36.6056 296.587 32.2658C296.587 27.926 293.073 24.405 288.742 24.405Z" fill="#2A3C64"/>
<path d="M288.742 42.9925C287.965 42.9925 287.312 42.3374 287.312 41.5595V22.972C287.312 22.1941 287.965 21.5391 288.742 21.5391C289.518 21.5391 290.172 22.1941 290.172 22.972V41.5595C290.172 42.3374 289.518 42.9925 288.742 42.9925Z" fill="#2A3C64"/>
<path d="M298.018 33.6987H279.547C278.771 33.6987 278.117 33.0436 278.117 32.2657C278.117 31.4878 278.771 30.8328 279.547 30.8328H298.018C298.794 30.8328 299.448 31.4878 299.448 32.2657C299.448 33.0436 298.835 33.6987 298.018 33.6987Z" fill="#2A3C64"/>
<path d="M322.699 83.4429H304.147C303.371 83.4429 302.717 82.9925 302.717 82.4603V60.925C302.717 60.3927 303.371 59.9424 304.147 59.9424H322.699C323.475 59.9424 324.129 60.3927 324.129 60.925V82.4603C324.129 82.9925 323.475 83.4429 322.699 83.4429ZM305.577 81.4367H321.269V61.9076H305.577V81.4367Z" fill="#2A3C64"/>
<path d="M322.699 70.2597H304.147C303.371 70.2597 302.717 69.6046 302.717 68.8268C302.717 68.0489 303.371 67.3938 304.147 67.3938H322.699C323.475 67.3938 324.129 68.0489 324.129 68.8268C324.129 69.6046 323.475 70.2597 322.699 70.2597Z" fill="#2A3C64"/>
<path d="M298.018 83.4429H279.466C278.689 83.4429 278.036 82.9925 278.036 82.4603V60.925C278.036 60.3927 278.689 59.9424 279.466 59.9424H298.018C298.794 59.9424 299.448 60.3927 299.448 60.925V82.4603C299.448 82.9925 298.794 83.4429 298.018 83.4429ZM280.896 81.4367H296.587V61.9076H280.896V81.4367Z" fill="#2A3C64"/>
<path d="M298.018 70.2597H279.466C278.689 70.2597 278.036 69.6046 278.036 68.8268C278.036 68.0489 278.689 67.3938 279.466 67.3938H298.018C298.794 67.3938 299.448 68.0489 299.448 68.8268C299.448 69.6046 298.794 70.2597 298.018 70.2597Z" fill="#2A3C64"/>
<path d="M273.541 83.4429H254.989C254.212 83.4429 253.558 82.9925 253.558 82.4603V60.925C253.558 60.3927 254.212 59.9424 254.989 59.9424H273.541C274.317 59.9424 274.971 60.3927 274.971 60.925V82.4603C274.971 82.9925 274.317 83.4429 273.541 83.4429ZM256.419 81.4367H272.11V61.9076H256.419V81.4367Z" fill="#2A3C64"/>
<path d="M273.541 70.2597H254.989C254.212 70.2597 253.558 69.6046 253.558 68.8268C253.558 68.0489 254.212 67.3938 254.989 67.3938H273.541C274.317 67.3938 274.971 68.0489 274.971 68.8268C274.971 69.6046 274.317 70.2597 273.541 70.2597Z" fill="#2A3C64"/>
<path d="M322.699 113.412H304.147C303.371 113.412 302.717 112.962 302.717 112.43V90.8942C302.717 90.362 303.371 89.9116 304.147 89.9116H322.699C323.475 89.9116 324.129 90.362 324.129 90.8942V112.43C324.129 113.003 323.475 113.412 322.699 113.412ZM305.577 111.447H321.269V91.9178H305.577V111.447Z" fill="#2A3C64"/>
<path d="M322.699 100.27H304.147C303.371 100.27 302.717 99.6149 302.717 98.837C302.717 98.0591 303.371 97.4041 304.147 97.4041H322.699C323.475 97.4041 324.129 98.0591 324.129 98.837C324.129 99.6149 323.475 100.27 322.699 100.27Z" fill="#2A3C64"/>
<path d="M298.018 113.412H279.466C278.689 113.412 278.036 112.962 278.036 112.43V90.8942C278.036 90.362 278.689 89.9116 279.466 89.9116H298.018C298.794 89.9116 299.448 90.362 299.448 90.8942V112.43C299.448 113.003 298.794 113.412 298.018 113.412ZM280.896 111.447H296.587V91.9178H280.896V111.447Z" fill="#2A3C64"/>
<path d="M298.018 100.27H279.466C278.689 100.27 278.036 99.6149 278.036 98.837C278.036 98.0591 278.689 97.4041 279.466 97.4041H298.018C298.794 97.4041 299.448 98.0591 299.448 98.837C299.448 99.6149 298.794 100.27 298.018 100.27Z" fill="#2A3C64"/>
<path d="M273.541 113.412H254.989C254.212 113.412 253.558 112.962 253.558 112.43V90.8942C253.558 90.362 254.212 89.9116 254.989 89.9116H273.541C274.317 89.9116 274.971 90.362 274.971 90.8942V112.43C274.971 113.003 274.317 113.412 273.541 113.412ZM256.419 111.447H272.11V91.9178H256.419V111.447Z" fill="#2A3C64"/>
<path d="M273.541 100.27H254.989C254.212 100.27 253.558 99.6149 253.558 98.837C253.558 98.0591 254.212 97.4041 254.989 97.4041H273.541C274.317 97.4041 274.971 98.0591 274.971 98.837C274.971 99.6149 274.317 100.27 273.541 100.27Z" fill="#2A3C64"/>
<path d="M322.699 147.517H304.147C303.371 147.517 302.717 147.066 302.717 146.534V124.999C302.717 124.466 303.371 124.016 304.147 124.016H322.699C323.475 124.016 324.129 124.466 324.129 124.999V146.534C324.129 147.066 323.475 147.517 322.699 147.517ZM305.577 145.551H321.269V126.022H305.577V145.551Z" fill="#2A3C64"/>
<path d="M322.699 134.374H304.147C303.371 134.374 302.717 133.719 302.717 132.941C302.717 132.163 303.371 131.508 304.147 131.508H322.699C323.475 131.508 324.129 132.163 324.129 132.941C324.129 133.719 323.475 134.374 322.699 134.374Z" fill="#2A3C64"/>
<path d="M298.018 147.517H279.466C278.689 147.517 278.036 147.066 278.036 146.534V124.999C278.036 124.466 278.689 124.016 279.466 124.016H298.018C298.794 124.016 299.448 124.466 299.448 124.999V146.534C299.448 147.066 298.794 147.517 298.018 147.517ZM280.896 145.551H296.587V126.022H280.896V145.551Z" fill="#2A3C64"/>
<path d="M298.018 134.374H279.466C278.689 134.374 278.036 133.719 278.036 132.941C278.036 132.163 278.689 131.508 279.466 131.508H298.018C298.794 131.508 299.448 132.163 299.448 132.941C299.448 133.719 298.794 134.374 298.018 134.374Z" fill="#2A3C64"/>
<path d="M273.541 147.517H254.989C254.212 147.517 253.558 147.066 253.558 146.534V124.999C253.558 124.466 254.212 124.016 254.989 124.016H273.541C274.317 124.016 274.971 124.466 274.971 124.999V146.534C274.971 147.066 274.317 147.517 273.541 147.517ZM256.419 145.551H272.11V126.022H256.419V145.551Z" fill="#2A3C64"/>
<path d="M273.541 134.374H254.989C254.212 134.374 253.558 133.719 253.558 132.941C253.558 132.163 254.212 131.508 254.989 131.508H273.541C274.317 131.508 274.971 132.163 274.971 132.941C274.971 133.719 274.317 134.374 273.541 134.374Z" fill="#2A3C64"/>
<path d="M239.297 50.7305H167.337C166.765 50.7305 166.274 50.403 166.029 49.9117C165.784 49.4204 165.866 48.8063 166.234 48.3969L203.542 5.08065C203.828 4.75312 204.196 4.58936 204.604 4.58936H280.406C281.182 4.58936 281.836 5.24442 281.836 6.02231C281.836 6.8002 281.182 7.45527 280.406 7.45527H205.34L170.483 47.9056H239.297C240.073 47.9056 240.727 48.5606 240.727 49.3385C240.727 50.1164 240.073 50.7305 239.297 50.7305Z" fill="#2A3C64"/>
<path d="M239.297 172.409H170.769C169.993 172.409 169.339 171.754 169.339 170.976V49.2977C169.339 48.5198 169.993 47.8647 170.769 47.8647C171.546 47.8647 172.2 48.5198 172.2 49.2977V169.502H239.297C240.074 169.502 240.727 170.157 240.727 170.935C240.727 171.754 240.074 172.409 239.297 172.409Z" fill="#2A3C64"/>
<path d="M219.887 172.409C219.111 172.409 218.457 171.754 218.457 170.976V122.256H191.283V170.976C191.283 171.754 190.629 172.409 189.852 172.409C189.076 172.409 188.422 171.754 188.422 170.976V120.823C188.422 120.045 189.076 119.39 189.852 119.39H219.887C220.663 119.39 221.317 120.045 221.317 120.823V170.976C221.317 171.754 220.704 172.409 219.887 172.409Z" fill="#2A3C64"/>
<path d="M227.692 83.1153H182.988C182.211 83.1153 181.557 82.4603 181.557 81.6824V61.3753C181.557 60.5974 182.211 59.9424 182.988 59.9424H227.651C228.428 59.9424 229.081 60.5974 229.081 61.3753V81.6824C229.122 82.4603 228.468 83.1153 227.692 83.1153ZM184.418 80.2494H226.221V62.8083H184.418V80.2494Z" fill="#2A3C64"/>
<path d="M227.692 66.6567H182.988C182.211 66.6567 181.557 66.0016 181.557 65.2237C181.557 64.4458 182.211 63.7908 182.988 63.7908H227.651C228.428 63.7908 229.081 64.4458 229.081 65.2237C229.122 66.0016 228.468 66.6567 227.692 66.6567Z" fill="#2A3C64"/>
<path d="M205.34 83.1152C204.563 83.1152 203.909 82.4602 203.909 81.6823V65.5103C203.909 64.7325 204.563 64.0774 205.34 64.0774C206.116 64.0774 206.77 64.7325 206.77 65.5103V81.6413C206.77 82.4602 206.116 83.1152 205.34 83.1152Z" fill="#2A3C64"/>
<path d="M227.692 113.658H182.988C182.211 113.658 181.557 113.003 181.557 112.225V91.9178C181.557 91.1399 182.211 90.4849 182.988 90.4849H227.651C228.428 90.4849 229.081 91.1399 229.081 91.9178V112.225C229.122 113.003 228.468 113.658 227.692 113.658ZM184.418 110.792H226.221V93.3508H184.418V110.792Z" fill="#2A3C64"/>
<path d="M227.692 97.1992H182.988C182.211 97.1992 181.557 96.5441 181.557 95.7662C181.557 94.9883 182.211 94.3333 182.988 94.3333H227.651C228.428 94.3333 229.081 94.9883 229.081 95.7662C229.081 96.5441 228.468 97.1992 227.692 97.1992Z" fill="#2A3C64"/>
<path d="M205.34 113.658C204.563 113.658 203.909 113.003 203.909 112.225V96.0938C203.909 95.316 204.563 94.6609 205.34 94.6609C206.116 94.6609 206.77 95.316 206.77 96.0938V112.225C206.77 113.003 206.116 113.658 205.34 113.658Z" fill="#2A3C64"/>
<path d="M420.17 91.5738C419.14 91.5738 418.138 91.0708 417.531 90.144C416.58 88.6877 416.976 86.7018 418.428 85.7486L453.686 62.421C454.24 62.0503 454.847 61.8914 455.507 61.8914C456.167 61.8649 456.8 62.0503 457.328 62.421L492.586 85.775C494.038 86.7283 494.434 88.7142 493.484 90.1705C492.533 91.6268 490.554 92.024 489.103 91.0708L455.507 68.8023L421.911 91.0708C421.384 91.415 420.777 91.5738 420.17 91.5738ZM419.457 87.3108C418.85 87.708 418.692 88.5288 419.088 89.1378C419.483 89.7468 420.302 89.9057 420.909 89.5085L455.006 66.9223C455.322 66.7105 455.718 66.7105 456.035 66.9223L490.132 89.5085C490.739 89.9057 491.557 89.7468 491.953 89.1378C492.349 88.5288 492.19 87.708 491.583 87.3108L456.325 63.9567C456.088 63.7979 455.824 63.7449 455.56 63.7449C455.533 63.7449 455.507 63.7449 455.481 63.7449C455.217 63.7449 454.926 63.7979 454.715 63.9567L419.457 87.3108Z" fill="#DEDEDE"/>
<path d="M487.572 173.393H423.706C423.205 173.393 422.782 172.969 422.782 172.466V88.7671C422.782 88.264 423.205 87.8403 423.706 87.8403C424.207 87.8403 424.63 88.264 424.63 88.7671V171.539H486.648V89.2437C486.648 88.7406 487.071 88.3169 487.572 88.3169C488.073 88.3169 488.496 88.7406 488.496 89.2437V172.439C488.496 172.969 488.1 173.393 487.572 173.393Z" fill="#DEDEDE"/>
<path d="M455.639 89.6938C451.812 89.6938 448.725 86.5694 448.725 82.7565C448.725 78.9171 451.839 75.8191 455.639 75.8191C459.466 75.8191 462.553 78.9436 462.553 82.7565C462.553 86.5694 459.466 89.6938 455.639 89.6938ZM455.639 77.6726C452.842 77.6726 450.572 79.9497 450.572 82.7565C450.572 85.5632 452.842 87.8403 455.639 87.8403C458.436 87.8403 460.706 85.5632 460.706 82.7565C460.706 79.9497 458.436 77.6726 455.639 77.6726Z" fill="#DEDEDE"/>
<path d="M455.639 89.6938C455.138 89.6938 454.715 89.2702 454.715 88.7671V76.7458C454.715 76.2427 455.138 75.8191 455.639 75.8191C456.14 75.8191 456.563 76.2427 456.563 76.7458V88.7671C456.563 89.2702 456.14 89.6938 455.639 89.6938Z" fill="#DEDEDE"/>
<path d="M461.63 83.6833H449.701C449.2 83.6833 448.777 83.2597 448.777 82.7566C448.777 82.2535 449.2 81.8298 449.701 81.8298H461.63C462.131 81.8298 462.553 82.2535 462.553 82.7566C462.553 83.2597 462.158 83.6833 461.63 83.6833Z" fill="#DEDEDE"/>
<path d="M477.57 115.855H465.588C465.087 115.855 464.665 115.563 464.665 115.219V101.291C464.665 100.947 465.087 100.656 465.588 100.656H477.57C478.071 100.656 478.493 100.947 478.493 101.291V115.219C478.493 115.563 478.071 115.855 477.57 115.855ZM466.512 114.557H476.646V101.927H466.512V114.557Z" fill="#DEDEDE"/>
<path d="M477.57 107.329H465.588C465.087 107.329 464.665 106.905 464.665 106.402C464.665 105.899 465.087 105.475 465.588 105.475H477.57C478.071 105.475 478.493 105.899 478.493 106.402C478.493 106.905 478.071 107.329 477.57 107.329Z" fill="#DEDEDE"/>
<path d="M461.63 115.855H449.648C449.147 115.855 448.725 115.563 448.725 115.219V101.291C448.725 100.947 449.147 100.656 449.648 100.656H461.63C462.131 100.656 462.553 100.947 462.553 101.291V115.219C462.553 115.563 462.131 115.855 461.63 115.855ZM450.572 114.557H460.706V101.927H450.572V114.557Z" fill="#DEDEDE"/>
<path d="M461.63 107.329H449.648C449.147 107.329 448.725 106.905 448.725 106.402C448.725 105.899 449.147 105.475 449.648 105.475H461.63C462.131 105.475 462.553 105.899 462.553 106.402C462.553 106.905 462.131 107.329 461.63 107.329Z" fill="#DEDEDE"/>
<path d="M445.822 115.855H433.84C433.339 115.855 432.917 115.563 432.917 115.219V101.291C432.917 100.947 433.339 100.656 433.84 100.656H445.822C446.323 100.656 446.745 100.947 446.745 101.291V115.219C446.745 115.563 446.323 115.855 445.822 115.855ZM434.764 114.557H444.898V101.927H434.764V114.557Z" fill="#DEDEDE"/>
<path d="M445.822 107.329H433.84C433.339 107.329 432.917 106.905 432.917 106.402C432.917 105.899 433.339 105.475 433.84 105.475H445.822C446.323 105.475 446.745 105.899 446.745 106.402C446.745 106.905 446.323 107.329 445.822 107.329Z" fill="#DEDEDE"/>
<path d="M477.57 135.237H465.588C465.087 135.237 464.665 134.946 464.665 134.602V120.674C464.665 120.33 465.087 120.038 465.588 120.038H477.57C478.071 120.038 478.493 120.33 478.493 120.674V134.602C478.493 134.972 478.071 135.237 477.57 135.237ZM466.512 133.966H476.646V121.336H466.512V133.966Z" fill="#DEDEDE"/>
<path d="M477.57 126.737H465.588C465.087 126.737 464.665 126.314 464.665 125.811C464.665 125.307 465.087 124.884 465.588 124.884H477.57C478.071 124.884 478.493 125.307 478.493 125.811C478.493 126.314 478.071 126.737 477.57 126.737Z" fill="#DEDEDE"/>
<path d="M461.63 135.237H449.648C449.147 135.237 448.725 134.946 448.725 134.602V120.674C448.725 120.33 449.147 120.038 449.648 120.038H461.63C462.131 120.038 462.553 120.33 462.553 120.674V134.602C462.553 134.972 462.131 135.237 461.63 135.237ZM450.572 133.966H460.706V121.336H450.572V133.966Z" fill="#DEDEDE"/>
<path d="M461.63 126.737H449.648C449.147 126.737 448.725 126.314 448.725 125.811C448.725 125.307 449.147 124.884 449.648 124.884H461.63C462.131 124.884 462.553 125.307 462.553 125.811C462.553 126.314 462.131 126.737 461.63 126.737Z" fill="#DEDEDE"/>
<path d="M445.822 135.237H433.84C433.339 135.237 432.917 134.946 432.917 134.602V120.674C432.917 120.33 433.339 120.038 433.84 120.038H445.822C446.323 120.038 446.745 120.33 446.745 120.674V134.602C446.745 134.972 446.323 135.237 445.822 135.237ZM434.764 133.966H444.898V121.336H434.764V133.966Z" fill="#DEDEDE"/>
<path d="M445.822 126.737H433.84C433.339 126.737 432.917 126.314 432.917 125.811C432.917 125.307 433.339 124.884 433.84 124.884H445.822C446.323 124.884 446.745 125.307 446.745 125.811C446.745 126.314 446.323 126.737 445.822 126.737Z" fill="#DEDEDE"/>
<path d="M477.57 157.293H465.588C465.087 157.293 464.665 157.002 464.665 156.658V142.73C464.665 142.386 465.087 142.095 465.588 142.095H477.57C478.071 142.095 478.493 142.386 478.493 142.73V156.658C478.493 157.002 478.071 157.293 477.57 157.293ZM466.512 156.022H476.646V143.392H466.512V156.022Z" fill="#DEDEDE"/>
<path d="M477.57 148.794H465.588C465.087 148.794 464.665 148.37 464.665 147.867C464.665 147.364 465.087 146.94 465.588 146.94H477.57C478.071 146.94 478.493 147.364 478.493 147.867C478.493 148.37 478.071 148.794 477.57 148.794Z" fill="#DEDEDE"/>
<path d="M461.63 157.293H449.648C449.147 157.293 448.725 157.002 448.725 156.658V142.73C448.725 142.386 449.147 142.095 449.648 142.095H461.63C462.131 142.095 462.553 142.386 462.553 142.73V156.658C462.553 157.002 462.131 157.293 461.63 157.293ZM450.572 156.022H460.706V143.392H450.572V156.022Z" fill="#DEDEDE"/>
<path d="M461.63 148.794H449.648C449.147 148.794 448.725 148.37 448.725 147.867C448.725 147.364 449.147 146.94 449.648 146.94H461.63C462.131 146.94 462.553 147.364 462.553 147.867C462.553 148.37 462.131 148.794 461.63 148.794Z" fill="#DEDEDE"/>
<path d="M445.822 157.293H433.84C433.339 157.293 432.917 157.002 432.917 156.658V142.73C432.917 142.386 433.339 142.095 433.84 142.095H445.822C446.323 142.095 446.745 142.386 446.745 142.73V156.658C446.745 157.002 446.323 157.293 445.822 157.293ZM434.764 156.022H444.898V143.392H434.764V156.022Z" fill="#DEDEDE"/>
<path d="M445.822 148.794H433.84C433.339 148.794 432.917 148.37 432.917 147.867C432.917 147.364 433.339 146.94 433.84 146.94H445.822C446.323 146.94 446.745 147.364 446.745 147.867C446.745 148.37 446.323 148.794 445.822 148.794Z" fill="#DEDEDE"/>
<path d="M423.706 94.6982H377.232C376.862 94.6982 376.545 94.4864 376.387 94.1687C376.229 93.8509 376.282 93.4538 376.519 93.189L400.614 65.1747C400.799 64.9628 401.036 64.8569 401.3 64.8569H450.255C450.757 64.8569 451.179 65.2806 451.179 65.7837C451.179 66.2868 450.757 66.7104 450.255 66.7104H401.775L379.264 92.8712H423.706C424.207 92.8712 424.63 93.2949 424.63 93.798C424.63 94.3011 424.207 94.6982 423.706 94.6982Z" fill="#DEDEDE"/>
<path d="M423.706 173.392H379.448C378.947 173.392 378.525 172.969 378.525 172.466V93.7715C378.525 93.2684 378.947 92.8447 379.448 92.8447C379.95 92.8447 380.372 93.2684 380.372 93.7715V171.512H423.706C424.207 171.512 424.63 171.936 424.63 172.439C424.63 172.969 424.207 173.392 423.706 173.392Z" fill="#DEDEDE"/>
<path d="M411.17 173.392C410.669 173.392 410.247 172.969 410.247 172.466V140.956H392.697V172.466C392.697 172.969 392.274 173.392 391.773 173.392C391.272 173.392 390.849 172.969 390.849 172.466V140.03C390.849 139.526 391.272 139.103 391.773 139.103H411.17C411.672 139.103 412.094 139.526 412.094 140.03V172.466C412.094 172.969 411.698 173.392 411.17 173.392Z" fill="#DEDEDE"/>
<path d="M416.211 115.643H387.339C386.838 115.643 386.416 115.219 386.416 114.716V101.583C386.416 101.08 386.838 100.656 387.339 100.656H416.185C416.686 100.656 417.108 101.08 417.108 101.583V114.716C417.135 115.219 416.712 115.643 416.211 115.643ZM388.263 113.789H415.261V102.51H388.263V113.789Z" fill="#DEDEDE"/>
<path d="M416.211 104.999H387.339C386.838 104.999 386.416 104.575 386.416 104.072C386.416 103.569 386.838 103.145 387.339 103.145H416.185C416.686 103.145 417.108 103.569 417.108 104.072C417.135 104.575 416.712 104.999 416.211 104.999Z" fill="#DEDEDE"/>
<path d="M401.775 115.643C401.274 115.643 400.852 115.219 400.852 114.716V104.257C400.852 103.754 401.274 103.33 401.775 103.33C402.277 103.33 402.699 103.754 402.699 104.257V114.69C402.699 115.219 402.277 115.643 401.775 115.643Z" fill="#DEDEDE"/>
<path d="M416.211 135.396H387.339C386.838 135.396 386.416 134.972 386.416 134.469V121.336C386.416 120.833 386.838 120.409 387.339 120.409H416.185C416.686 120.409 417.108 120.833 417.108 121.336V134.469C417.135 134.972 416.712 135.396 416.211 135.396ZM388.263 133.542H415.261V122.262H388.263V133.542Z" fill="#DEDEDE"/>
<path d="M416.211 124.751H387.339C386.838 124.751 386.416 124.328 386.416 123.825C386.416 123.322 386.838 122.898 387.339 122.898H416.185C416.686 122.898 417.108 123.322 417.108 123.825C417.108 124.328 416.713 124.751 416.211 124.751Z" fill="#DEDEDE"/>
<path d="M401.775 135.396C401.274 135.396 400.852 134.972 400.852 134.469V124.036C400.852 123.533 401.274 123.11 401.775 123.11C402.277 123.11 402.699 123.533 402.699 124.036V134.469C402.699 134.972 402.277 135.396 401.775 135.396Z" fill="#DEDEDE"/>
<path d="M7.91251 175.193C8.41393 175.193 8.83618 174.769 8.83618 174.266V130.074C8.83618 129.571 8.41393 129.147 7.91251 129.147C7.41108 129.147 6.98883 129.571 6.98883 130.074V174.266C6.98883 174.796 7.41108 175.193 7.91251 175.193Z" fill="#DEDEDE"/>
<path d="M7.91242 139.209C8.14994 139.209 8.38746 139.129 8.5722 138.944L12.1614 135.316C12.5308 134.946 12.5308 134.363 12.1614 134.019C11.7919 133.648 11.2113 133.648 10.8418 134.019L7.22625 137.647C6.85677 138.017 6.85677 138.6 7.22625 138.944C7.43738 139.129 7.67491 139.209 7.91242 139.209Z" fill="#DEDEDE"/>
<path d="M7.91267 145.961C8.09741 145.961 8.28214 145.908 8.44049 145.802C8.86274 145.511 8.96829 144.928 8.67799 144.504L4.71937 138.785C4.42907 138.361 3.84849 138.255 3.42623 138.547C3.00398 138.838 2.89841 139.42 3.18871 139.844L7.14733 145.563C7.33207 145.828 7.62237 145.961 7.91267 145.961Z" fill="#DEDEDE"/>
<path d="M7.80716 157.85C7.88633 157.85 7.96551 157.85 8.04468 157.823C8.25581 157.77 13.3757 156.367 15.1702 149.244C16.9912 141.989 13.1909 117.285 9.49619 112.545C9.12671 112.068 8.70445 111.724 8.28219 111.592C8.15024 111.539 8.01828 111.486 7.88633 111.486H7.75437C7.59603 111.486 7.46407 111.512 7.35851 111.592C6.93625 111.751 6.5404 112.068 6.14453 112.545C2.4498 117.311 -1.3505 141.989 0.470474 149.244C2.26506 156.367 7.38491 157.77 7.59604 157.823C7.64882 157.85 7.72799 157.85 7.80716 157.85ZM7.80716 113.419C8.62528 114.081 10.5518 118.291 12.2936 128.617C13.7715 137.408 14.1938 145.511 13.3757 148.794C12.0561 154.063 8.73084 155.626 7.80716 155.97C6.88348 155.626 3.58461 154.063 2.23867 148.794C1.39416 145.511 1.8428 137.382 3.3207 128.617C5.0625 118.264 6.98904 114.054 7.80716 113.419Z" fill="#DEDEDE"/>
<path d="M86.2936 91.5738C87.3228 91.5738 88.3257 91.0708 88.9327 90.144C89.8828 88.6877 89.4869 86.7018 88.0354 85.7486L52.7772 62.421C52.223 62.0503 51.616 61.8914 50.9562 61.8914C50.2964 61.8649 49.6631 62.0503 49.1353 62.421L13.877 85.775C12.4255 86.7283 12.0297 88.7142 12.9798 90.1705C13.9298 91.6268 15.9091 92.024 17.3606 91.0708L50.9562 68.8023L84.5518 91.0708C85.0796 91.415 85.6866 91.5738 86.2936 91.5738ZM87.0062 87.3108C87.6131 87.708 87.7715 88.5288 87.3756 89.1378C86.9798 89.7468 86.1616 89.9057 85.5547 89.5085L51.4576 66.9223C51.141 66.7105 50.7451 66.7105 50.4284 66.9223L16.3314 89.5085C15.7244 89.9057 14.9063 89.7468 14.5104 89.1378C14.1146 88.5288 14.2729 87.708 14.8799 87.3108L50.1381 63.9567C50.3756 63.7979 50.6395 63.7449 50.9034 63.7449C50.9298 63.7449 50.9562 63.7449 50.9826 63.7449C51.2465 63.7449 51.5368 63.7979 51.7479 63.9567L87.0062 87.3108Z" fill="#DEDEDE"/>
<path d="M18.8913 173.393H82.7572C83.2587 173.393 83.6809 172.969 83.6809 172.466V88.7671C83.6809 88.264 83.2587 87.8403 82.7572 87.8403C82.2558 87.8403 81.8335 88.264 81.8335 88.7671V171.539H19.815V89.2437C19.815 88.7406 19.3927 88.3169 18.8913 88.3169C18.3899 88.3169 17.9676 88.7406 17.9676 89.2437V172.439C17.9676 172.969 18.3635 173.393 18.8913 173.393Z" fill="#DEDEDE"/>
<path d="M50.8241 89.6938C54.6508 89.6938 57.7385 86.5694 57.7385 82.7565C57.7385 78.9171 54.6244 75.8191 50.8241 75.8191C46.9974 75.8191 43.9097 78.9436 43.9097 82.7565C43.9097 86.5694 46.9974 89.6938 50.8241 89.6938ZM50.8241 77.6726C53.6215 77.6726 55.8912 79.9497 55.8912 82.7565C55.8912 85.5632 53.6215 87.8403 50.8241 87.8403C48.0267 87.8403 45.7571 85.5632 45.7571 82.7565C45.7571 79.9497 48.0267 77.6726 50.8241 77.6726Z" fill="#DEDEDE"/>
<path d="M50.8241 89.6938C51.3256 89.6938 51.7478 89.2702 51.7478 88.7671V76.7458C51.7478 76.2427 51.3256 75.8191 50.8241 75.8191C50.3227 75.8191 49.9005 76.2427 49.9005 76.7458V88.7671C49.9005 89.2702 50.3227 89.6938 50.8241 89.6938Z" fill="#DEDEDE"/>
<path d="M44.8334 83.6833H56.7621C57.2635 83.6833 57.6858 83.2597 57.6858 82.7566C57.6858 82.2535 57.2635 81.8298 56.7621 81.8298H44.8334C44.332 81.8298 43.9097 82.2535 43.9097 82.7566C43.9097 83.2597 44.3056 83.6833 44.8334 83.6833Z" fill="#DEDEDE"/>
<path d="M28.8932 115.855H40.8747C41.3761 115.855 41.7983 115.563 41.7983 115.219V101.291C41.7983 100.947 41.3761 100.656 40.8747 100.656H28.8932C28.3918 100.656 27.9695 100.947 27.9695 101.291V115.219C27.9695 115.563 28.3918 115.855 28.8932 115.855ZM39.951 114.557H29.8169V101.927H39.951V114.557Z" fill="#DEDEDE"/>
<path d="M28.8932 107.329H40.8747C41.3761 107.329 41.7983 106.905 41.7983 106.402C41.7983 105.899 41.3761 105.475 40.8747 105.475H28.8932C28.3918 105.475 27.9695 105.899 27.9695 106.402C27.9695 106.905 28.3918 107.329 28.8932 107.329Z" fill="#DEDEDE"/>
<path d="M44.8334 115.855H56.8148C57.3163 115.855 57.7385 115.563 57.7385 115.219V101.291C57.7385 100.947 57.3163 100.656 56.8148 100.656H44.8334C44.3319 100.656 43.9097 100.947 43.9097 101.291V115.219C43.9097 115.563 44.3319 115.855 44.8334 115.855ZM55.8912 114.557H45.7571V101.927H55.8912V114.557Z" fill="#DEDEDE"/>
<path d="M44.8334 107.329H56.8148C57.3163 107.329 57.7385 106.905 57.7385 106.402C57.7385 105.899 57.3163 105.475 56.8148 105.475H44.8334C44.3319 105.475 43.9097 105.899 43.9097 106.402C43.9097 106.905 44.3319 107.329 44.8334 107.329Z" fill="#DEDEDE"/>
<path d="M60.6415 115.855H72.6229C73.1244 115.855 73.5466 115.563 73.5466 115.219V101.291C73.5466 100.947 73.1244 100.656 72.6229 100.656H60.6415C60.1401 100.656 59.7178 100.947 59.7178 101.291V115.219C59.7178 115.563 60.1401 115.855 60.6415 115.855ZM71.6993 114.557H61.5652V101.927H71.6993V114.557Z" fill="#DEDEDE"/>
<path d="M60.6415 107.329H72.6229C73.1244 107.329 73.5466 106.905 73.5466 106.402C73.5466 105.899 73.1244 105.475 72.6229 105.475H60.6415C60.1401 105.475 59.7178 105.899 59.7178 106.402C59.7178 106.905 60.1401 107.329 60.6415 107.329Z" fill="#DEDEDE"/>
<path d="M28.8932 135.237H40.8747C41.3761 135.237 41.7983 134.946 41.7983 134.602V120.674C41.7983 120.33 41.3761 120.038 40.8747 120.038H28.8932C28.3918 120.038 27.9695 120.33 27.9695 120.674V134.602C27.9695 134.972 28.3918 135.237 28.8932 135.237ZM39.951 133.966H29.8169V121.336H39.951V133.966Z" fill="#DEDEDE"/>
<path d="M28.8932 126.737H40.8747C41.3761 126.737 41.7983 126.314 41.7983 125.811C41.7983 125.307 41.3761 124.884 40.8747 124.884H28.8932C28.3918 124.884 27.9695 125.307 27.9695 125.811C27.9695 126.314 28.3918 126.737 28.8932 126.737Z" fill="#DEDEDE"/>
<path d="M44.8334 135.237H56.8148C57.3163 135.237 57.7385 134.946 57.7385 134.602V120.674C57.7385 120.33 57.3163 120.038 56.8148 120.038H44.8334C44.3319 120.038 43.9097 120.33 43.9097 120.674V134.602C43.9097 134.972 44.3319 135.237 44.8334 135.237ZM55.8912 133.966H45.7571V121.336H55.8912V133.966Z" fill="#DEDEDE"/>
<path d="M44.8334 126.737H56.8148C57.3163 126.737 57.7385 126.314 57.7385 125.811C57.7385 125.307 57.3163 124.884 56.8148 124.884H44.8334C44.3319 124.884 43.9097 125.307 43.9097 125.811C43.9097 126.314 44.3319 126.737 44.8334 126.737Z" fill="#DEDEDE"/>
<path d="M60.6415 135.237H72.6229C73.1244 135.237 73.5466 134.946 73.5466 134.602V120.674C73.5466 120.33 73.1244 120.038 72.6229 120.038H60.6415C60.1401 120.038 59.7178 120.33 59.7178 120.674V134.602C59.7178 134.972 60.1401 135.237 60.6415 135.237ZM71.6993 133.966H61.5652V121.336H71.6993V133.966Z" fill="#DEDEDE"/>
<path d="M60.6415 126.737H72.6229C73.1244 126.737 73.5466 126.314 73.5466 125.811C73.5466 125.307 73.1244 124.884 72.6229 124.884H60.6415C60.1401 124.884 59.7178 125.307 59.7178 125.811C59.7178 126.314 60.1401 126.737 60.6415 126.737Z" fill="#DEDEDE"/>
<path d="M28.8932 157.293H40.8747C41.3761 157.293 41.7983 157.002 41.7983 156.658V142.73C41.7983 142.386 41.3761 142.095 40.8747 142.095H28.8932C28.3918 142.095 27.9695 142.386 27.9695 142.73V156.658C27.9695 157.002 28.3918 157.293 28.8932 157.293ZM39.951 156.022H29.8169V143.392H39.951V156.022Z" fill="#DEDEDE"/>
<path d="M28.8932 148.794H40.8747C41.3761 148.794 41.7983 148.37 41.7983 147.867C41.7983 147.364 41.3761 146.94 40.8747 146.94H28.8932C28.3918 146.94 27.9695 147.364 27.9695 147.867C27.9695 148.37 28.3918 148.794 28.8932 148.794Z" fill="#DEDEDE"/>
<path d="M44.8334 157.293H56.8148C57.3163 157.293 57.7385 157.002 57.7385 156.658V142.73C57.7385 142.386 57.3163 142.095 56.8148 142.095H44.8334C44.3319 142.095 43.9097 142.386 43.9097 142.73V156.658C43.9097 157.002 44.3319 157.293 44.8334 157.293ZM55.8912 156.022H45.7571V143.392H55.8912V156.022Z" fill="#DEDEDE"/>
<path d="M44.8334 148.794H56.8148C57.3163 148.794 57.7385 148.37 57.7385 147.867C57.7385 147.364 57.3163 146.94 56.8148 146.94H44.8334C44.3319 146.94 43.9097 147.364 43.9097 147.867C43.9097 148.37 44.3319 148.794 44.8334 148.794Z" fill="#DEDEDE"/>
<path d="M60.6415 157.293H72.6229C73.1244 157.293 73.5466 157.002 73.5466 156.658V142.73C73.5466 142.386 73.1244 142.095 72.6229 142.095H60.6415C60.1401 142.095 59.7178 142.386 59.7178 142.73V156.658C59.7178 157.002 60.1401 157.293 60.6415 157.293ZM71.6993 156.022H61.5652V143.392H71.6993V156.022Z" fill="#DEDEDE"/>
<path d="M60.6415 148.794H72.6229C73.1244 148.794 73.5466 148.37 73.5466 147.867C73.5466 147.364 73.1244 146.94 72.6229 146.94H60.6415C60.1401 146.94 59.7178 147.364 59.7178 147.867C59.7178 148.37 60.1401 148.794 60.6415 148.794Z" fill="#DEDEDE"/>
<path d="M82.7571 94.6982H129.231C129.601 94.6982 129.918 94.4864 130.076 94.1687C130.234 93.8509 130.182 93.4538 129.944 93.189L105.849 65.1747C105.664 64.9628 105.427 64.8569 105.163 64.8569H56.2079C55.7065 64.8569 55.2842 65.2806 55.2842 65.7837C55.2842 66.2868 55.7065 66.7104 56.2079 66.7104H104.688L127.199 92.8712H82.7571C82.2557 92.8712 81.8335 93.2949 81.8335 93.798C81.8335 94.3011 82.2557 94.6982 82.7571 94.6982Z" fill="#DEDEDE"/>
<path d="M82.757 173.392H127.015C127.516 173.392 127.938 172.969 127.938 172.466V93.7715C127.938 93.2684 127.516 92.8447 127.015 92.8447C126.513 92.8447 126.091 93.2684 126.091 93.7715V171.512H82.757C82.2556 171.512 81.8334 171.936 81.8334 172.439C81.8334 172.969 82.2556 173.392 82.757 173.392Z" fill="#DEDEDE"/>
<path d="M95.2928 173.392C95.7942 173.392 96.2165 172.969 96.2165 172.466V140.956H113.766V172.466C113.766 172.969 114.189 173.392 114.69 173.392C115.192 173.392 115.614 172.969 115.614 172.466V140.03C115.614 139.526 115.192 139.103 114.69 139.103H95.2928C94.7914 139.103 94.3691 139.526 94.3691 140.03V172.466C94.3691 172.969 94.765 173.392 95.2928 173.392Z" fill="#DEDEDE"/>
<path d="M90.2521 115.643H119.124C119.625 115.643 120.047 115.219 120.047 114.716V101.583C120.047 101.08 119.625 100.656 119.124 100.656H90.2785C89.777 100.656 89.3548 101.08 89.3548 101.583V114.716C89.3284 115.219 89.7506 115.643 90.2521 115.643ZM118.2 113.789H91.2021V102.51H118.2V113.789Z" fill="#DEDEDE"/>
<path d="M90.2521 104.999H119.124C119.625 104.999 120.047 104.575 120.047 104.072C120.047 103.569 119.625 103.145 119.124 103.145H90.2785C89.777 103.145 89.3548 103.569 89.3548 104.072C89.3284 104.575 89.7506 104.999 90.2521 104.999Z" fill="#DEDEDE"/>
<path d="M104.688 115.643C105.189 115.643 105.612 115.219 105.612 114.716V104.257C105.612 103.754 105.189 103.33 104.688 103.33C104.186 103.33 103.764 103.754 103.764 104.257V114.69C103.764 115.219 104.186 115.643 104.688 115.643Z" fill="#DEDEDE"/>
<path d="M90.2521 135.396H119.124C119.625 135.396 120.047 134.972 120.047 134.469V121.336C120.047 120.833 119.625 120.409 119.124 120.409H90.2785C89.777 120.409 89.3548 120.833 89.3548 121.336V134.469C89.3284 134.972 89.7506 135.396 90.2521 135.396ZM118.2 133.542H91.2021V122.262H118.2V133.542Z" fill="#DEDEDE"/>
<path d="M90.2521 124.751H119.124C119.625 124.751 120.047 124.328 120.047 123.825C120.047 123.322 119.625 122.898 119.124 122.898H90.2784C89.777 122.898 89.3548 123.322 89.3548 123.825C89.3548 124.328 89.7506 124.751 90.2521 124.751Z" fill="#DEDEDE"/>
<path d="M104.688 135.396C105.189 135.396 105.612 134.972 105.612 134.469V124.036C105.612 123.533 105.189 123.11 104.688 123.11C104.186 123.11 103.764 123.533 103.764 124.036V134.469C103.764 134.972 104.186 135.396 104.688 135.396Z" fill="#DEDEDE"/>
</svg>
